<svg width="90" height="90" viewBox="0 0 33 32" fill="none" xmlns="http://www.w3.org/2000/svg">
    <path
        d="M15.5 6C14.9937 6.00168 14.4961 6.13149 14.0536 6.37734C13.611 6.62318 13.2379 6.97706 12.969 7.406C12.5234 7.14429 12.0168 7.00428 11.5 7C9.85499 7 8.49999 8.355 8.49999 10V13.656L6.40599 16.344C5.12899 17.996 5.21499 20.367 6.59399 21.937L8.96899 24.625C9.62467 25.3717 10.4322 25.9698 11.3376 26.3794C12.2429 26.7889 13.2253 27.0005 14.219 27H19.5C23.355 27 26.5 23.855 26.5 20V11C26.5 9.355 25.145 8 23.5 8C22.965 8 22.469 8.156 22.031 8.406C21.7621 7.97706 21.389 7.62318 20.9464 7.37734C20.5038 7.13149 20.0062 7.00168 19.5 7C18.965 7 18.469 7.156 18.031 7.406C17.7621 6.97706 17.389 6.62318 16.9464 6.37734C16.5038 6.13149 16.0062 6.00168 15.5 6ZM15.5 8C16.066 8 16.5 8.434 16.5 9V12H18.5V10C18.5 9.434 18.934 9 19.5 9C20.066 9 20.5 9.434 20.5 10V12H22.5V11C22.5 10.434 22.934 10 23.5 10C24.066 10 24.5 10.434 24.5 11V20C24.5 22.773 22.273 25 19.5 25H14.219C13.5097 25.0025 12.808 24.8532 12.1612 24.5621C11.5144 24.2709 10.9374 23.8447 10.469 23.312L8.09399 20.594C7.72876 20.1845 7.51922 19.6595 7.50203 19.1111C7.48485 18.5626 7.66112 18.0256 7.99999 17.594L8.49999 16.937V18H10.5V10C10.5 9.434 10.934 9 11.5 9C12.066 9 12.5 9.434 12.5 10V12H14.5V9C14.5 8.434 14.934 8 15.5 8Z"
        fill="#F8F7FF">
        <animate attributeName="d" begin="0s" dur="0.4s" repeatCount="indefinite"
            values="
            M15.5 6C14.9937 6.00168 14.4961 6.13149 14.0536 6.37734C13.611 6.62318 13.2379 6.97706 12.969 7.406C12.5234 7.14429 12.0168 7.00428 11.5 7C9.85499 7 8.49999 8.355 8.49999 10V13.656L6.40599 16.344C5.12899 17.996 5.21499 20.367 6.59399 21.937L8.96899 24.625C9.62467 25.3717 10.4322 25.9698 11.3376 26.3794C12.2429 26.7889 13.2253 27.0005 14.219 27H19.5C23.355 27 26.5 23.855 26.5 20V11C26.5 9.355 25.145 8 23.5 8C22.965 8 22.469 8.156 22.031 8.406C21.7621 7.97706 21.389 7.62318 20.9464 7.37734C20.5038 7.13149 20.0062 7.00168 19.5 7C18.965 7 18.469 7.156 18.031 7.406C17.7621 6.97706 17.389 6.62318 16.9464 6.37734C16.5038 6.13149 16.0062 6.00168 15.5 6ZM15.5 8C16.066 8 16.5 8.434 16.5 9V12H18.5V10C18.5 9.434 18.934 9 19.5 9C20.066 9 20.5 9.434 20.5 10V12H22.5V11C22.5 10.434 22.934 10 23.5 10C24.066 10 24.5 10.434 24.5 11V20C24.5 22.773 22.273 25 19.5 25H14.219C13.5097 25.0025 12.808 24.8532 12.1612 24.5621C11.5144 24.2709 10.9374 23.8447 10.469 23.312L8.09399 20.594C7.72876 20.1845 7.51922 19.6595 7.50203 19.1111C7.48485 18.5626 7.66112 18.0256 7.99999 17.594L8.49999 16.937V18H10.5V10C10.5 9.434 10.934 9 11.5 9C12.066 9 12.5 9.434 12.5 10V12H14.5V9C14.5 8.434 14.934 8 15.5 8Z;

            M11.906 6.969C11.2497 6.9623 10.5963 7.05709 9.969 7.25H9.938L7.438 8.031C6.00825 8.47205 4.75737 9.35949 3.86873 10.5632C2.98008 11.767 2.5004 13.2238 2.5 14.72V20C2.5 23.855 5.645 27 9.5 27H19.406C20.625 27.027 21.805 26.312 22.281 25.125C22.582 24.371 22.539 23.578 22.25 22.875C22.8855 22.5477 23.3839 22.005 23.656 21.344C23.8041 20.9693 23.875 20.5685 23.8644 20.1657C23.8537 19.7629 23.7617 19.3664 23.594 19H27.5C29.145 19 30.5 17.645 30.5 16C30.5 14.355 29.145 13 27.5 13H25.969L26.375 12.875C27.949 12.398 28.852 10.699 28.375 9.125C27.898 7.551 26.199 6.648 24.625 7.125L16.187 9.719C16.11 9.51372 16.0163 9.31506 15.907 9.125C15.407 8.289 14.395 7.344 12.781 7.062C12.481 7.012 12.184 6.972 11.906 6.969ZM25.625 9C26.015 9.043 26.348 9.313 26.469 9.719C26.633 10.258 26.32 10.805 25.781 10.969L18.938 13.031L19.281 14.156V15H27.5C28.066 15 28.5 15.434 28.5 16C28.5 16.566 28.066 17 27.5 17H20.906L18.281 15.969C17.9144 15.8187 17.5212 15.7443 17.125 15.75L16.594 11.656L25.219 9.031C25.3506 8.99197 25.489 8.9814 25.625 9ZM11.875 9.031C12.066 9.031 12.265 9.031 12.438 9.062C13.512 9.25 13.926 9.719 14.188 10.156C14.449 10.594 14.468 10.906 14.468 10.906V10.969L15.313 17.406C15.3212 17.4379 15.3313 17.4693 15.343 17.5C15.3735 17.6231 15.379 17.7511 15.3592 17.8764C15.3394 18.0016 15.2947 18.1217 15.2278 18.2294C15.1609 18.3372 15.0731 18.4304 14.9696 18.5037C14.866 18.577 14.7489 18.6287 14.625 18.656C14.301 18.734 14.137 18.691 13.969 18.594C13.801 18.496 13.594 18.289 13.438 17.844L12.188 13C12.1493 12.8542 12.0781 12.7191 11.9797 12.6048C11.8814 12.4905 11.7585 12.3998 11.6202 12.3397C11.4818 12.2796 11.3317 12.2516 11.181 12.2577C11.0303 12.2638 10.883 12.3039 10.75 12.375L9.094 13.281C8.97876 13.3444 8.8772 13.4299 8.79516 13.5327C8.71311 13.6354 8.65221 13.7534 8.61596 13.8798C8.57971 14.0062 8.56883 14.1386 8.58394 14.2692C8.59905 14.3998 8.63985 14.5262 8.704 14.641C8.76736 14.756 8.8528 14.8573 8.95542 14.9392C9.05804 15.021 9.17582 15.0818 9.30199 15.1181C9.42817 15.1543 9.56026 15.1653 9.69068 15.1503C9.8211 15.1354 9.94729 15.0948 10.062 15.031L10.562 14.75L11.532 18.438C11.5403 18.4695 11.5503 18.5006 11.562 18.531C11.832 19.305 12.293 19.926 12.938 20.313C13.465 20.629 14.078 20.75 14.688 20.688C14.361 20.993 14.1049 21.3661 13.938 21.781C13.7185 22.3226 13.6637 22.9169 13.7804 23.4895C13.8971 24.062 14.1801 24.5875 14.594 25H9.5C6.727 25 4.5 22.773 4.5 20V14.719C4.5 12.519 5.93 10.586 8.031 9.938L10.531 9.188C10.734 9.125 11.305 9.031 11.875 9.031ZM17.313 17.781C17.387 17.793 17.457 17.781 17.531 17.813L21.25 19.313C21.773 19.523 22.023 20.07 21.813 20.593C21.602 21.117 21.023 21.367 20.5 21.156L16.781 19.688C16.727 19.668 16.703 19.621 16.656 19.594C17.0653 19.0766 17.2958 18.4405 17.313 17.781ZM16.688 21.906C16.82 21.906 16.961 21.918 17.094 21.969L18.437 22.5L19.75 23.031L19.875 23.063C20.398 23.273 20.648 23.852 20.438 24.375C20.3692 24.5533 20.2496 24.7075 20.0941 24.8185C19.9386 24.9296 19.754 24.9927 19.563 25H19.531C19.3928 25.0059 19.2549 24.9845 19.125 24.937L16.344 23.812C16.2202 23.7638 16.1072 23.6913 16.0116 23.599C15.9161 23.5066 15.8399 23.3961 15.7875 23.274C15.7351 23.1519 15.7075 23.0206 15.7064 22.8877C15.7053 22.7548 15.7306 22.623 15.781 22.5C15.8292 22.3803 15.9011 22.2715 15.9923 22.1803C16.0835 22.0891 16.1923 22.0172 16.312 21.969C16.4316 21.9221 16.5597 21.9007 16.688 21.906Z;
            
            M16.5 2C15.117 2 13.969 2.969 13.625 4.25C13.273 4.105 12.902 4 12.5 4C10.855 4 9.49998 5.355 9.49998 7V17.75L8.62498 16.875C8.05911 16.3157 7.29558 16.0021 6.49998 16.0021C5.70438 16.0021 4.94085 16.3157 4.37498 16.875C3.81572 17.4409 3.50208 18.2044 3.50208 19C3.50208 19.7956 3.81572 20.5591 4.37498 21.125L11.156 27.906C12.332 29.078 13.957 30 15.875 30H20.5C24.355 30 27.5 26.855 27.5 23V11C27.5 9.355 26.145 8 24.5 8C24.1583 8.00427 23.8199 8.06789 23.5 8.188V7C23.5 5.355 22.145 4 20.5 4C20.098 4 19.727 4.105 19.375 4.25C19.031 2.969 17.883 2 16.5 2ZM16.5 4C17.066 4 17.5 4.434 17.5 5V15H19.5V7C19.5 6.434 19.934 6 20.5 6C21.066 6 21.5 6.434 21.5 7V15H23.5V11C23.5 10.434 23.934 10 24.5 10C25.066 10 25.5 10.434 25.5 11V23C25.5 25.773 23.273 28 20.5 28H15.875C14.602 28 13.508 27.379 12.594 26.469L5.78098 19.719C5.68622 19.6248 5.61103 19.5127 5.55972 19.3893C5.5084 19.266 5.48199 19.1336 5.48199 19C5.48199 18.8664 5.5084 18.734 5.55972 18.6107C5.61103 18.4873 5.68622 18.3752 5.78098 18.281C5.87521 18.1862 5.98724 18.111 6.11064 18.0597C6.23403 18.0084 6.36635 17.982 6.49998 17.982C6.63362 17.982 6.76593 18.0084 6.88933 18.0597C7.01272 18.111 7.12475 18.1862 7.21898 18.281L9.78098 20.875L11.5 22.594V7C11.5 6.434 11.934 6 12.5 6C13.066 6 13.5 6.434 13.5 7V15H15.5V5C15.5 4.434 15.934 4 16.5 4Z" />
    </path>
</svg>