<svg width="523" height="426" viewBox="0 0 523 426" fill="none" xmlns="http://www.w3.org/2000/svg">
<rect y="0.5" width="523" height="425" rx="32" fill="#F8F7FF"/>
<path d="M256.871 43.4156C254.796 43.4156 253.074 44.8691 252.558 46.7906C252.03 46.5731 251.474 46.4156 250.871 46.4156C248.403 46.4156 246.371 48.4481 246.371 50.9156V67.0406L245.058 65.7281C244.21 64.8893 243.064 64.4188 241.871 64.4188C240.677 64.4188 239.532 64.8893 238.683 65.7281C237.844 66.577 237.374 67.7222 237.374 68.9156C237.374 70.1091 237.844 71.2543 238.683 72.1031L248.855 82.2747C250.619 84.0326 253.056 85.4156 255.933 85.4156H262.871C268.653 85.4156 273.371 80.6982 273.371 74.9156V56.9156C273.371 54.4481 271.338 52.4156 268.871 52.4156C268.358 52.4221 267.851 52.5175 267.371 52.6976V50.9156C267.371 48.4481 265.338 46.4156 262.871 46.4156C262.268 46.4156 261.711 46.5731 261.183 46.7906C260.667 44.8691 258.945 43.4156 256.871 43.4156ZM256.871 46.4156C257.72 46.4156 258.371 47.0666 258.371 47.9156V62.9156H261.371V50.9156C261.371 50.0666 262.022 49.4156 262.871 49.4156C263.72 49.4156 264.371 50.0666 264.371 50.9156V62.9156H267.371V56.9156C267.371 56.0666 268.022 55.4156 268.871 55.4156C269.72 55.4156 270.371 56.0666 270.371 56.9156V74.9156C270.371 79.0751 267.03 82.4156 262.871 82.4156H255.933C254.024 82.4156 252.383 81.4841 251.012 80.1191L240.792 69.9941C240.65 69.8528 240.537 69.6848 240.46 69.4997C240.384 69.3146 240.344 69.1161 240.344 68.9156C240.344 68.7152 240.384 68.5167 240.46 68.3316C240.537 68.1465 240.65 67.9785 240.792 67.8372C240.934 67.695 241.102 67.5822 241.287 67.5053C241.472 67.4283 241.67 67.3887 241.871 67.3887C242.071 67.3887 242.27 67.4283 242.455 67.5053C242.64 67.5822 242.808 67.695 242.949 67.8372L246.792 71.7281L249.371 74.3066V50.9156C249.371 50.0666 250.022 49.4156 250.871 49.4156C251.72 49.4156 252.371 50.0666 252.371 50.9156V62.9156H255.371V47.9156C255.371 47.0666 256.022 46.4156 256.871 46.4156Z" fill="#07074E"/>
<rect x="225.871" y="33.4156" width="62" height="62" rx="11" stroke="#8227F1" stroke-width="2"/>
<path d="M71.4289 319.416C70.6695 319.418 69.9231 319.613 69.2593 319.982C68.5954 320.35 68.0357 320.881 67.6324 321.525C66.9639 321.132 66.2041 320.922 65.4289 320.916C62.9614 320.916 60.9289 322.948 60.9289 325.416V330.9L57.7879 334.932C55.8724 337.41 56.0014 340.966 58.0699 343.321L61.6324 347.353C62.6159 348.473 63.8272 349.37 65.1852 349.985C66.5433 350.599 68.0168 350.916 69.5074 350.916H77.4289C83.2114 350.916 87.9289 346.198 87.9289 340.416V326.916C87.9289 324.448 85.8964 322.416 83.4289 322.416C82.6264 322.416 81.8824 322.65 81.2254 323.025C80.822 322.381 80.2623 321.85 79.5985 321.482C78.9347 321.113 78.1883 320.918 77.4289 320.916C76.6264 320.916 75.8824 321.15 75.2254 321.525C74.822 320.881 74.2623 320.35 73.5985 319.982C72.9347 319.613 72.1883 319.418 71.4289 319.416ZM71.4289 322.416C72.2779 322.416 72.9289 323.067 72.9289 323.916V328.416H75.9289V325.416C75.9289 324.567 76.5799 323.916 77.4289 323.916C78.2779 323.916 78.9289 324.567 78.9289 325.416V328.416H81.9289V326.916C81.9289 326.067 82.5799 325.416 83.4289 325.416C84.2779 325.416 84.9289 326.067 84.9289 326.916V340.416C84.9289 344.575 81.5884 347.916 77.4289 347.916H69.5074C68.4434 347.919 67.3909 347.695 66.4207 347.259C65.4505 346.822 64.585 346.183 63.8824 345.384L60.3199 341.307C59.772 340.692 59.4577 339.905 59.4319 339.082C59.4062 338.26 59.6706 337.454 60.1789 336.807L60.9289 335.821V337.416H63.9289V325.416C63.9289 324.567 64.5799 323.916 65.4289 323.916C66.2779 323.916 66.9289 324.567 66.9289 325.416V328.416H69.9289V323.916C69.9289 323.067 70.5799 322.416 71.4289 322.416Z" fill="#07074E"/>
<rect x="41.929" y="303.416" width="62" height="62" rx="11" stroke="#8227F1" stroke-width="2"/>
<path d="M440.409 320.869C439.425 320.859 438.445 321.001 437.504 321.291H437.457L433.707 322.462C431.562 323.124 429.686 324.455 428.353 326.261C427.02 328.066 426.301 330.251 426.3 332.496V340.416C426.3 346.198 431.018 350.916 436.8 350.916H451.659C453.488 350.956 455.258 349.884 455.972 348.103C456.423 346.972 456.359 345.783 455.925 344.728C456.878 344.237 457.626 343.423 458.034 342.432C458.256 341.87 458.363 341.268 458.347 340.664C458.331 340.06 458.193 339.465 457.941 338.916H463.8C466.268 338.916 468.3 336.883 468.3 334.416C468.3 331.948 466.268 329.916 463.8 329.916H461.504L462.113 329.728C464.474 329.013 465.828 326.464 465.113 324.103C464.397 321.742 461.849 320.388 459.488 321.103L446.831 324.994C446.715 324.686 446.575 324.388 446.411 324.103C445.661 322.849 444.143 321.432 441.722 321.009C441.272 320.934 440.826 320.874 440.409 320.869ZM460.988 323.916C461.573 323.98 462.072 324.385 462.254 324.994C462.5 325.803 462.03 326.623 461.222 326.869L450.957 329.962L451.472 331.65V332.916H463.8C464.649 332.916 465.3 333.567 465.3 334.416C465.3 335.265 464.649 335.916 463.8 335.916H453.909L449.972 334.369C449.422 334.144 448.832 334.032 448.238 334.041L447.441 327.9L460.379 323.962C460.576 323.904 460.784 323.888 460.988 323.916ZM440.363 323.962C440.649 323.962 440.948 323.962 441.207 324.009C442.818 324.291 443.439 324.994 443.832 325.65C444.224 326.307 444.252 326.775 444.252 326.775V326.869L445.52 336.525C445.532 336.572 445.547 336.62 445.565 336.666C445.61 336.85 445.619 337.042 445.589 337.23C445.559 337.418 445.492 337.598 445.392 337.76C445.291 337.921 445.16 338.061 445.004 338.171C444.849 338.281 444.673 338.359 444.488 338.4C444.002 338.517 443.756 338.452 443.504 338.307C443.252 338.16 442.941 337.849 442.707 337.182L440.832 329.916C440.774 329.697 440.667 329.494 440.52 329.323C440.372 329.151 440.188 329.015 439.98 328.925C439.773 328.835 439.548 328.793 439.322 328.802C439.096 328.811 438.875 328.871 438.675 328.978L436.191 330.337C436.018 330.432 435.866 330.56 435.743 330.715C435.62 330.869 435.528 331.046 435.474 331.235C435.42 331.425 435.403 331.624 435.426 331.819C435.449 332.015 435.51 332.205 435.606 332.377C435.701 332.55 435.829 332.702 435.983 332.824C436.137 332.947 436.314 333.038 436.503 333.093C436.692 333.147 436.89 333.164 437.086 333.141C437.282 333.119 437.471 333.058 437.643 332.962L438.393 332.541L439.848 338.073C439.86 338.12 439.875 338.167 439.893 338.212C440.298 339.373 440.99 340.305 441.957 340.885C442.748 341.359 443.667 341.541 444.582 341.448C444.092 341.905 443.707 342.465 443.457 343.087C443.128 343.9 443.046 344.791 443.221 345.65C443.396 346.509 443.82 347.297 444.441 347.916H436.8C432.641 347.916 429.3 344.575 429.3 340.416V332.494C429.3 329.194 431.445 326.295 434.597 325.323L438.347 324.198C438.651 324.103 439.508 323.962 440.363 323.962ZM448.52 337.087C448.631 337.105 448.736 337.087 448.847 337.135L454.425 339.385C455.21 339.7 455.585 340.521 455.27 341.305C454.953 342.091 454.085 342.466 453.3 342.15L447.722 339.948C447.641 339.918 447.605 339.847 447.534 339.807C448.148 339.031 448.494 338.076 448.52 337.087ZM447.582 343.275C447.78 343.275 447.992 343.293 448.191 343.369L450.206 344.166L452.175 344.962L452.363 345.01C453.147 345.325 453.522 346.194 453.207 346.978C453.104 347.246 452.924 347.477 452.691 347.643C452.458 347.81 452.181 347.905 451.895 347.916H451.847C451.639 347.924 451.432 347.892 451.238 347.821L447.066 346.134C446.88 346.061 446.711 345.953 446.568 345.814C446.424 345.676 446.31 345.51 446.231 345.327C446.153 345.143 446.111 344.946 446.11 344.747C446.108 344.548 446.146 344.35 446.222 344.166C446.294 343.986 446.402 343.823 446.539 343.686C446.675 343.549 446.838 343.441 447.018 343.369C447.197 343.299 447.39 343.267 447.582 343.275Z" fill="#07074E"/>
<rect x="-1" y="1" width="62" height="62" rx="11" transform="matrix(-1 0 0 1 477.3 302.416)" stroke="#8227F1" stroke-width="2"/>
<path d="M426.976 148.232L426.088 148.692L426.976 148.232ZM338.749 78.6153C338.443 78.1559 338.566 77.535 339.026 77.2284L346.512 72.2327C346.971 71.9261 347.592 72.05 347.899 72.5094C348.205 72.9688 348.082 73.5897 347.622 73.8962L340.968 78.3369L345.408 84.9913C345.715 85.4507 345.591 86.0716 345.132 86.3782C344.672 86.6847 344.051 86.5608 343.745 86.1015L338.749 78.6153ZM446.781 263.735C445.798 263.55 445.798 263.55 445.798 263.55C445.798 263.55 445.798 263.55 445.798 263.549C445.798 263.548 445.799 263.546 445.799 263.543C445.8 263.537 445.802 263.527 445.804 263.515C445.809 263.489 445.816 263.45 445.825 263.397C445.844 263.292 445.872 263.133 445.906 262.922C445.976 262.5 446.074 261.871 446.189 261.046C446.419 259.398 446.715 256.972 446.976 253.875C447.497 247.68 447.877 238.802 447.309 228.092C446.173 206.669 441.245 177.941 426.088 148.692L427.864 147.771C443.185 177.337 448.16 206.361 449.306 227.986C449.88 238.8 449.496 247.771 448.969 254.043C448.705 257.179 448.405 259.641 448.17 261.323C448.053 262.164 447.952 262.81 447.88 263.247C447.844 263.466 447.815 263.632 447.795 263.745C447.785 263.801 447.777 263.844 447.772 263.874C447.769 263.888 447.767 263.9 447.766 263.907C447.765 263.911 447.764 263.914 447.764 263.916C447.764 263.918 447.764 263.919 447.763 263.919C447.763 263.92 447.763 263.92 446.781 263.735ZM426.088 148.692C410.958 119.495 389.27 102.08 371.357 91.9608C362.4 86.9007 354.391 83.6672 348.627 81.7C345.746 80.7165 343.426 80.0499 341.831 79.6301C341.034 79.4202 340.418 79.272 340.004 79.1767C339.796 79.1291 339.639 79.0947 339.536 79.0724C339.484 79.0612 339.445 79.0531 339.42 79.048C339.407 79.0453 339.398 79.0435 339.392 79.0423C339.389 79.0417 339.387 79.0413 339.386 79.0411C339.386 79.041 339.385 79.0409 339.385 79.0408C339.385 79.0408 339.385 79.0409 339.581 78.0602C339.777 77.0796 339.777 77.0797 339.778 77.0798C339.779 77.08 339.78 77.0802 339.781 77.0804C339.783 77.0809 339.786 77.0815 339.79 77.0823C339.798 77.084 339.81 77.0863 339.825 77.0894C339.855 77.0956 339.898 77.1047 339.955 77.1168C340.068 77.1411 340.235 77.1776 340.452 77.2275C340.886 77.3273 341.522 77.4805 342.341 77.696C343.978 78.1269 346.343 78.807 349.273 79.8072C355.134 81.8072 363.259 85.0886 372.341 90.2195C390.507 100.482 412.515 118.153 427.864 147.771L426.088 148.692Z" fill="#07074E"/>
<path d="M94.0424 149.051L94.8848 149.59L94.0424 149.051ZM77.8664 260.266C77.6219 260.761 77.0222 260.964 76.527 260.719L68.4575 256.734C67.9623 256.49 67.7591 255.89 68.0037 255.395C68.2483 254.9 68.8479 254.696 69.3431 254.941L76.516 258.483L80.0585 251.311C80.3031 250.815 80.9028 250.612 81.398 250.857C81.8931 251.101 82.0963 251.701 81.8518 252.196L77.8664 260.266ZM184.169 74.1477C184.501 75.0913 184.501 75.0912 184.501 75.0913C184.5 75.0914 184.5 75.0915 184.499 75.0917C184.498 75.0921 184.496 75.0928 184.493 75.0938C184.488 75.0959 184.478 75.0991 184.466 75.1035C184.442 75.1122 184.404 75.1257 184.354 75.144C184.253 75.1805 184.102 75.2362 183.902 75.3116C183.502 75.4623 182.908 75.6917 182.136 76.0042C180.594 76.6291 178.345 77.5859 175.533 78.9089C169.907 81.5551 162.028 85.6648 153.037 91.5115C135.052 103.207 112.637 121.838 94.8848 149.59L93.2 148.512C111.144 120.46 133.792 101.64 151.947 89.8348C161.026 83.9312 168.986 79.7781 174.681 77.0991C177.529 75.7595 179.812 74.7882 181.385 74.1506C182.172 73.8318 182.782 73.5963 183.197 73.44C183.404 73.3619 183.563 73.3035 183.67 73.2644C183.724 73.2448 183.765 73.23 183.793 73.22C183.808 73.215 183.818 73.2112 183.826 73.2085C183.83 73.2072 183.832 73.2062 183.835 73.2054C183.836 73.2051 183.837 73.2047 183.837 73.2045C183.838 73.2043 183.838 73.2041 184.169 74.1477ZM94.8848 149.59C77.1647 177.291 72.9274 204.781 73.1199 225.353C73.2162 235.64 74.4203 244.193 75.5987 250.168C76.1878 253.156 76.7703 255.498 77.2041 257.089C77.421 257.884 77.6007 258.492 77.7254 258.899C77.7878 259.102 77.8364 259.255 77.8691 259.356C77.8854 259.407 77.8977 259.444 77.9058 259.469C77.9099 259.481 77.9128 259.49 77.9147 259.495C77.9156 259.498 77.9163 259.5 77.9167 259.501C77.9169 259.502 77.9169 259.502 77.917 259.502C77.917 259.502 77.9169 259.502 76.9698 259.823C76.0227 260.144 76.0225 260.143 76.0222 260.142C76.022 260.142 76.0217 260.141 76.0213 260.14C76.0206 260.137 76.0195 260.134 76.0182 260.13C76.0156 260.123 76.0119 260.111 76.0071 260.097C75.9976 260.068 75.9837 260.026 75.9659 259.971C75.9303 259.861 75.8787 259.698 75.8134 259.485C75.6827 259.059 75.4972 258.432 75.2745 257.615C74.8293 255.982 74.2356 253.593 73.6365 250.555C72.4384 244.48 71.2176 235.803 71.12 225.372C70.9247 204.509 75.2237 176.613 93.2 148.512L94.8848 149.59Z" fill="#07074E"/>
<path d="M257.57 393.584L257.569 392.584L257.57 393.584ZM366.963 352.911C367.006 352.361 366.595 351.879 366.044 351.836L357.071 351.135C356.521 351.092 356.04 351.504 355.996 352.054C355.953 352.605 356.365 353.086 356.916 353.129L364.891 353.752L364.268 361.728C364.225 362.279 364.637 362.76 365.187 362.803C365.738 362.846 366.219 362.435 366.262 361.884L366.963 352.911ZM151.567 352.833C150.862 353.542 150.862 353.543 150.863 353.543C150.863 353.544 150.864 353.545 150.865 353.545C150.866 353.547 150.869 353.549 150.871 353.552C150.877 353.558 150.885 353.566 150.896 353.576C150.918 353.597 150.949 353.628 150.99 353.668C151.073 353.748 151.195 353.866 151.356 354.018C151.679 354.323 152.158 354.767 152.789 355.33C154.05 356.458 155.921 358.063 158.368 359.988C163.261 363.836 170.46 368.962 179.7 374.086C198.179 384.333 224.847 394.588 257.57 394.584L257.569 392.584C225.271 392.588 198.937 382.466 180.67 372.337C171.538 367.272 164.427 362.209 159.604 358.416C157.193 356.519 155.354 354.941 154.121 353.839C153.504 353.288 153.039 352.857 152.73 352.564C152.575 352.418 152.459 352.307 152.383 352.232C152.344 352.195 152.316 352.168 152.298 352.149C152.288 352.14 152.282 352.134 152.277 352.13C152.275 352.127 152.274 352.126 152.273 352.125C152.272 352.125 152.272 352.124 152.272 352.124C152.272 352.124 152.272 352.124 151.567 352.833ZM257.57 394.584C288.159 394.581 315.421 384.323 335.01 374.093C344.809 368.975 352.702 363.858 358.148 360.017C360.871 358.097 362.983 356.495 364.417 355.371C365.134 354.809 365.681 354.367 366.05 354.064C366.235 353.913 366.375 353.796 366.47 353.717C366.517 353.677 366.553 353.647 366.577 353.626C366.59 353.616 366.599 353.608 366.605 353.602C366.609 353.6 366.611 353.598 366.613 353.596C366.614 353.595 366.615 353.595 366.615 353.594C366.616 353.594 366.616 353.593 365.966 352.833C365.316 352.073 365.316 352.073 365.316 352.073C365.316 352.074 365.316 352.074 365.315 352.074C365.314 352.075 365.312 352.077 365.309 352.079C365.304 352.084 365.296 352.09 365.285 352.1C365.263 352.118 365.23 352.146 365.185 352.184C365.096 352.259 364.961 352.371 364.782 352.518C364.424 352.812 363.888 353.245 363.183 353.797C361.774 354.902 359.688 356.483 356.995 358.383C351.608 362.182 343.791 367.251 334.084 372.32C314.661 382.464 287.725 392.581 257.569 392.584L257.57 394.584Z" fill="#07074E"/>
<g clip-path="url(#clip0_35_863)">
<path d="M246.922 160.01V132.452C254.552 133.002 262.217 133.02 269.849 132.505C270.269 132.477 270.612 132.765 270.612 133.15V159.312C270.612 159.697 270.272 160.035 269.849 160.062C262.215 160.577 254.554 160.56 246.922 160.01Z" fill="#BDBDBD"/>
<path d="M246.922 160.005V132.447C253.857 130.92 260.819 129.917 267.754 129.45C268.137 129.425 268.447 129.717 268.447 130.102V156.265C268.447 156.65 268.137 156.982 267.754 157.007C260.819 157.475 253.857 158.477 246.922 160.005Z" fill="#E0E0E0"/>
</g>
<rect x="235.767" y="121.942" width="46" height="46" rx="11" stroke="#8227F1" stroke-width="2"/>
<path d="M137.799 286.418C137.667 286.105 137.539 285.793 137.414 285.48C136.472 283.103 137.654 280.958 138.709 278.858L140.239 275.818C140.547 275.205 141.019 274.69 141.599 274.33L145.999 271.6L150.347 267.105C150.617 266.825 150.961 266.628 151.339 266.538L154.299 265.823C155.732 265.48 156.347 265.535 156.809 266.193C158.412 268.468 159.484 270.34 160.912 272.608C161.689 273.843 163.484 276.68 163.597 276.868C163.942 277.448 163.802 277.933 163.789 278.598C163.759 280.13 164.029 281.67 164.589 283.098C164.757 283.523 164.949 283.943 165.037 284.39C165.117 284.793 165.009 287.35 164.927 288.215C164.859 288.918 163.199 291.54 162.604 291.858C161.949 292.208 157.094 293.993 156.022 294.298C154.949 294.603 150.299 293.54 147.884 293.17C146.392 292.943 144.897 292.713 143.404 292.485C142.109 292.288 140.822 292.438 140.097 291.13C139.244 289.6 138.479 288.028 137.799 286.418Z" fill="url(#paint0_linear_35_863)"/>
<path d="M143.402 292.483C144.894 292.71 146.389 292.94 147.882 293.168C148.659 293.288 149.669 293.478 150.717 293.673C150.012 292.838 148.959 291.848 148.254 291.013C148.102 290.833 147.947 290.645 147.892 290.415C147.834 290.17 147.899 289.918 147.967 289.675C148.182 288.88 148.237 288.018 148.452 287.223C147.119 287.533 144.049 288.123 143.797 288.05C143.517 287.97 143.289 287.768 143.072 287.57C141.489 286.125 140.252 284.668 139.042 282.905C138.899 282.698 138.754 282.483 138.702 282.235C138.652 282.003 138.689 281.763 138.727 281.53C138.817 280.95 139.017 279.343 139.177 277.925L138.707 278.858C137.654 280.958 136.472 283.103 137.417 285.48C137.542 285.795 137.669 286.108 137.802 286.418C138.48 288.027 139.245 289.599 140.094 291.125C140.817 292.435 142.107 292.285 143.402 292.483Z" fill="url(#paint1_linear_35_863)"/>
<path d="M156.829 266.22C156.522 265.858 155.922 265.928 155.292 266.503L153.027 268.768C152.887 268.908 152.812 269.1 152.824 269.298L153.067 273.923C153.074 274.078 153.132 274.223 153.232 274.34C154.037 275.28 156.882 279.798 157.707 279.798C158.529 279.798 159.967 276.593 160.699 276.61C160.824 276.613 161.477 276.653 162.114 276.848C162.709 277.028 162.942 276.21 162.819 275.63C162.204 274.655 161.377 273.348 160.912 272.608C159.489 270.35 158.419 268.483 156.829 266.22Z" fill="url(#paint2_linear_35_863)"/>
<path d="M146.289 275.325C147.122 275.2 149.899 274.728 150.422 274.523C151.442 274.12 152.342 272.405 152.937 271.483C152.937 271.483 153.142 274.49 152.937 275.665C152.794 276.483 152.257 280.758 151.717 281.783L148.452 287.223L143.654 282.425C143.247 282.018 142.987 281.803 142.839 281.225C142.502 279.905 141.889 277.958 141.887 276.81C141.884 275.663 144.977 275.52 146.289 275.325Z" fill="url(#paint3_linear_35_863)"/>
<path d="M152.357 268.918C152.037 268.535 151.947 267.993 152.057 267.508C152.15 267.103 152.99 266.32 153.262 266.073L151.34 266.538C150.962 266.629 150.618 266.826 150.347 267.105L146 271.6C146 271.6 150.21 269.845 152.357 268.918Z" fill="url(#paint4_linear_35_863)"/>
<path d="M164.587 283.098C164.167 282.026 163.909 280.898 163.822 279.75C162.387 280.733 161.584 282.008 159.274 282.32C158.662 282.403 157.714 282.518 157.117 282.675C156.377 282.87 155.692 283.418 154.582 283.52C153.792 283.595 151.799 283.538 152.099 283.983C152.399 284.428 154.187 285.325 154.632 285.688C155.264 286.195 155.814 286.793 156.342 287.408C156.617 287.73 157.029 288.513 157.509 288.725C157.632 288.78 157.762 288.795 157.892 288.755C158.119 288.688 158.302 288.523 158.479 288.365C160.2 286.84 162.135 285.575 164.222 284.61C164.444 284.508 164.684 284.393 164.794 284.173C164.842 284.075 164.862 283.943 164.864 283.8C164.777 283.565 164.679 283.333 164.587 283.098Z" fill="url(#paint5_linear_35_863)"/>
<path d="M165.034 284.39C165.002 284.228 164.954 284.068 164.899 283.91C164.857 284.058 164.764 284.22 164.564 284.373C163.989 284.813 161.772 285.49 159.332 287.628C157.739 289.023 157.737 289.21 157.394 290.748C156.834 293.265 155.944 294.18 155.774 294.335C155.867 294.325 155.949 294.313 156.017 294.293C157.092 293.99 161.944 292.203 162.599 291.853C163.194 291.535 164.854 288.913 164.922 288.21C165.007 287.35 165.114 284.793 165.034 284.39Z" fill="url(#paint6_linear_35_863)"/>
<rect x="128.567" y="256.733" width="46" height="46" rx="11" stroke="#8227F1" stroke-width="2"/>
<g clip-path="url(#clip1_35_863)">
<path d="M365.599 284.695L358.489 294.483C357.111 293.48 356.804 291.553 357.806 290.173L364.151 281.44M367.961 276.195C369.339 277.198 369.646 279.125 368.644 280.505L367.694 281.813L366.244 278.558L371.216 271.733" fill="#C2C2C2"/>
<path d="M365.599 284.695L358.489 294.483C357.111 293.48 356.804 291.553 357.806 290.173L364.151 281.44M367.961 276.195C369.339 277.198 369.646 279.125 368.644 280.505L367.694 281.813L366.244 278.558L371.216 271.733" stroke="#C2C2C2" stroke-width="5" stroke-miterlimit="10"/>
<mask id="mask0_35_863" style="mask-type:luminance" maskUnits="userSpaceOnUse" x="365" y="275" width="5" height="8">
<path d="M367.966 275.233C369.731 276.515 370.499 278.968 369.216 280.733L368.001 282.405L365.769 278.258L367.966 275.233Z" fill="white"/>
</mask>
<g mask="url(#mask0_35_863)">
<path d="M368.981 281.685L365.599 277.093" stroke="#999999" stroke-width="4" stroke-miterlimit="10"/>
</g>
<path d="M360.216 272.733L363.466 276.983L360.216 272.733ZM363.721 276.195C362.344 277.198 362.036 279.125 363.039 280.505L373.194 294.483C374.571 293.48 374.879 291.553 373.876 290.173L360.706 272.265" fill="#C2C2C2"/>
<path d="M360.216 272.733L363.466 276.983M363.721 276.195C362.344 277.198 362.036 279.125 363.039 280.505L373.194 294.483C374.571 293.48 374.879 291.553 373.876 290.173L360.706 272.265" stroke="#C2C2C2" stroke-width="5" stroke-miterlimit="10"/>
<path d="M365.781 282.233C366.16 282.233 366.466 281.926 366.466 281.548C366.466 281.169 366.16 280.863 365.781 280.863C365.403 280.863 365.096 281.169 365.096 281.548C365.096 281.926 365.403 282.233 365.781 282.233Z" fill="#2F2F2F"/>
<path d="M370.716 273.233L367.466 277.483L370.716 273.233Z" fill="#C2C2C2"/>
<path d="M370.716 273.233L367.466 277.483" stroke="#C2C2C2" stroke-width="5" stroke-miterlimit="10"/>
<path d="M371.966 273.733L370.371 275.525C370.322 275.58 370.261 275.624 370.193 275.653C370.125 275.681 370.051 275.695 369.977 275.692C369.903 275.688 369.831 275.669 369.766 275.635C369.7 275.6 369.643 275.552 369.599 275.493L368.639 274.215L369.966 271.983L371.966 273.733ZM359.561 273.733L361.146 275.515C361.196 275.571 361.258 275.615 361.327 275.644C361.396 275.673 361.471 275.686 361.546 275.683C361.621 275.679 361.694 275.658 361.76 275.622C361.826 275.586 361.882 275.536 361.926 275.475L362.874 274.155L361.561 271.983L359.561 273.733Z" fill="#8227F1"/>
<path d="M358.101 274.545C356.296 274.545 354.539 273.61 353.574 271.938C352.134 269.445 352.991 266.245 355.481 264.808C357.974 263.368 361.171 264.225 362.609 266.718C364.046 269.21 363.191 272.408 360.699 273.845C359.881 274.32 358.984 274.545 358.101 274.545ZM358.086 266.358C357.584 266.358 357.074 266.485 356.606 266.755C355.189 267.573 354.701 269.393 355.519 270.81C356.336 272.228 358.156 272.715 359.574 271.898C360.991 271.08 361.479 269.26 360.661 267.843C360.114 266.89 359.114 266.358 358.086 266.358ZM373.831 274.545C372.946 274.545 372.051 274.32 371.231 273.848C368.739 272.41 367.881 269.21 369.321 266.72C370.759 264.228 373.959 263.37 376.449 264.81C378.941 266.248 379.799 269.448 378.359 271.938C377.396 273.608 375.636 274.545 373.831 274.545ZM373.846 266.358C372.819 266.358 371.819 266.89 371.271 267.84C370.454 269.258 370.941 271.078 372.359 271.895C373.776 272.713 375.596 272.225 376.414 270.808C377.231 269.39 376.744 267.57 375.326 266.753C374.876 266.495 374.366 266.359 373.846 266.358Z" fill="#8227F1"/>
</g>
<rect x="342.966" y="256.733" width="46" height="46" rx="11" stroke="#8227F1" stroke-width="2"/>
<path d="M117.855 179.796C118.439 180.194 118.896 180.707 119.227 181.335C119.557 181.963 119.682 182.693 119.6 183.524C119.507 184.348 119.138 185.234 118.493 186.182L117.075 188.265L121.737 191.438L120.455 193.323L108.963 185.502L111.664 181.534C112.264 180.652 112.925 180.013 113.646 179.617C114.364 179.202 115.083 179.023 115.804 179.078C116.532 179.122 117.215 179.361 117.855 179.796ZM116.955 185.135C117.443 184.419 117.647 183.775 117.567 183.205C117.476 182.627 117.133 182.136 116.538 181.731C115.282 180.875 114.169 181.159 113.202 182.581L111.784 184.664L115.537 187.218L116.955 185.135ZM122.123 180.99C121.208 180.367 120.525 179.628 120.075 178.774C119.632 177.908 119.439 177.018 119.496 176.105C119.549 175.174 119.846 174.311 120.386 173.518C120.874 172.801 121.441 172.276 122.087 171.942C122.731 171.589 123.37 171.396 124.007 171.361L122.684 170.461L123.978 168.56L133.088 174.76L131.794 176.661L130.439 175.739C130.651 176.351 130.713 177.03 130.624 177.776C130.536 178.522 130.251 179.248 129.771 179.954C129.239 180.736 128.553 181.318 127.713 181.698C126.863 182.071 125.948 182.206 124.969 182.104C123.986 181.984 123.038 181.612 122.123 180.99ZM127.231 173.555C126.603 173.128 125.967 172.889 125.324 172.838C124.688 172.777 124.107 172.873 123.579 173.127C123.052 173.381 122.623 173.75 122.293 174.235C121.963 174.72 121.776 175.254 121.734 175.838C121.68 176.415 121.795 176.993 122.078 177.572C122.357 178.133 122.811 178.628 123.439 179.055C124.068 179.483 124.705 179.731 125.352 179.8C126.006 179.858 126.602 179.764 127.141 179.518C127.676 179.253 128.104 178.884 128.427 178.41C128.757 177.925 128.943 177.39 128.986 176.806C129.029 176.222 128.905 175.646 128.614 175.078C128.32 174.49 127.859 173.983 127.231 173.555ZM128.285 165.11C128.084 164.506 128.027 163.83 128.116 163.084C128.204 162.338 128.485 161.618 128.958 160.923C129.498 160.13 130.187 159.543 131.027 159.162C131.863 158.763 132.761 158.617 133.722 158.722C134.682 158.827 135.62 159.191 136.535 159.814C137.45 160.437 138.143 161.183 138.616 162.053C139.077 162.915 139.287 163.816 139.244 164.755C139.199 165.675 138.906 166.532 138.365 167.326C137.893 168.02 137.335 168.544 136.692 168.896C136.038 169.242 135.385 169.442 134.733 169.499L140.388 173.347L139.105 175.232L125.663 166.084L126.946 164.199L128.285 165.11ZM135.229 161.732C134.601 161.304 133.971 161.069 133.339 161.026C132.703 160.965 132.124 161.07 131.6 161.342C131.072 161.596 130.643 161.966 130.313 162.451C129.991 162.924 129.804 163.459 129.754 164.054C129.712 164.638 129.832 165.22 130.115 165.799C130.405 166.368 130.864 166.866 131.493 167.293C132.121 167.721 132.758 167.969 133.405 168.038C134.048 168.089 134.633 167.987 135.161 167.734C135.696 167.469 136.125 167.099 136.447 166.625C136.777 166.14 136.964 165.606 137.006 165.022C137.045 164.42 136.914 163.83 136.613 163.254C136.319 162.667 135.858 162.16 135.229 161.732ZM143.304 149.477C143.646 149.709 143.939 149.941 144.185 150.173L139.447 157.134C140.212 157.574 140.98 157.701 141.751 157.516C142.522 157.331 143.148 156.886 143.628 156.181C144.318 155.167 144.382 154.161 143.818 153.165L145.202 151.131C145.852 151.977 146.2 152.947 146.245 154.042C146.286 155.119 145.943 156.192 145.215 157.261C144.623 158.132 143.897 158.783 143.039 159.215C142.177 159.628 141.258 159.793 140.283 159.71C139.304 159.608 138.346 159.239 137.409 158.601C136.472 157.963 135.778 157.217 135.328 156.362C134.874 155.489 134.686 154.579 134.766 153.633C134.853 152.676 135.2 151.751 135.808 150.858C136.393 149.999 137.101 149.36 137.934 148.943C138.766 148.525 139.652 148.362 140.59 148.452C141.518 148.535 142.422 148.877 143.304 149.477ZM141.37 151.039C140.668 150.578 139.942 150.447 139.193 150.647C138.444 150.847 137.826 151.305 137.339 152.021C136.896 152.672 136.726 153.371 136.83 154.119C136.923 154.859 137.292 155.514 137.938 156.082L141.37 151.039ZM142.84 143.689C142.565 143.098 142.454 142.491 142.508 141.866C142.559 141.223 142.798 140.588 143.225 139.959L145.176 141.287L144.85 141.767C144.347 142.505 144.152 143.195 144.264 143.836C144.384 144.465 144.907 145.095 145.833 145.726L150.628 148.989L149.345 150.874L140.234 144.674L141.517 142.789L142.84 143.689Z" fill="#07074E"/>
<path d="M130.242 216.025C129.978 215.484 129.871 214.882 129.922 214.22C129.972 213.558 130.205 212.923 130.619 212.314C131.063 211.662 131.616 211.18 132.279 210.87C132.942 210.56 133.657 210.447 134.426 210.531C135.186 210.609 135.936 210.901 136.676 211.405C137.408 211.903 137.959 212.497 138.328 213.187C138.697 213.877 138.86 214.594 138.818 215.339C138.781 216.076 138.544 216.766 138.106 217.409C137.679 218.036 137.168 218.494 136.57 218.784C135.979 219.065 135.39 219.181 134.805 219.131L136.141 220.04L135.322 221.244L125.534 214.582L126.353 213.378L130.242 216.025ZM135.839 212.635C135.292 212.263 134.741 212.049 134.186 211.993C133.63 211.938 133.117 212.027 132.648 212.263C132.184 212.489 131.799 212.827 131.493 213.277C131.193 213.718 131.024 214.203 130.986 214.732C130.946 215.246 131.055 215.759 131.313 216.271C131.569 216.767 131.966 217.198 132.504 217.564C133.05 217.937 133.606 218.153 134.17 218.215C134.732 218.262 135.249 218.175 135.722 217.955C136.191 217.72 136.576 217.382 136.876 216.941C137.182 216.491 137.356 216.009 137.396 215.494C137.434 214.965 137.325 214.452 137.069 213.956C136.805 213.453 136.395 213.013 135.839 212.635ZM142.004 203.036C142.234 203.192 142.467 203.37 142.705 203.571L138.762 209.364C139.506 209.806 140.231 209.945 140.937 209.78C141.64 209.6 142.207 209.193 142.639 208.558C142.994 208.038 143.169 207.525 143.165 207.019C143.158 206.498 142.999 206.029 142.69 205.612L143.572 204.315C144.137 204.984 144.441 205.759 144.486 206.641C144.522 207.517 144.246 208.387 143.658 209.251C143.19 209.939 142.615 210.451 141.935 210.788C141.26 211.116 140.535 211.242 139.761 211.166C138.978 211.085 138.211 210.789 137.462 210.279C136.712 209.769 136.157 209.172 135.797 208.488C135.437 207.804 135.29 207.091 135.356 206.349C135.419 205.592 135.691 204.861 136.171 204.156C136.639 203.468 137.203 202.962 137.863 202.637C138.523 202.312 139.214 202.188 139.935 202.266C140.653 202.329 141.343 202.586 142.004 203.036ZM140.907 204.108C140.448 203.796 139.987 203.63 139.523 203.611C139.05 203.586 138.609 203.693 138.202 203.931C137.791 204.155 137.442 204.479 137.154 204.902C136.74 205.51 136.58 206.163 136.674 206.859C136.774 207.546 137.146 208.155 137.792 208.685L140.907 204.108ZM143.031 202.068C142.29 201.564 141.744 200.973 141.393 200.295C141.032 199.611 140.875 198.904 140.92 198.173C140.972 197.434 141.217 196.743 141.655 196.099C142.087 195.464 142.599 195.006 143.19 194.725C143.782 194.443 144.362 194.329 144.933 194.382L143.61 193.482L144.438 192.265L151.687 197.198L150.859 198.415L149.51 197.497C149.771 198.023 149.881 198.62 149.839 199.288C149.794 199.942 149.558 200.581 149.132 201.207C148.694 201.851 148.139 202.325 147.468 202.629C146.796 202.934 146.072 203.041 145.295 202.95C144.518 202.86 143.763 202.566 143.031 202.068ZM147.221 195.939C146.675 195.567 146.123 195.353 145.568 195.298C145.012 195.242 144.499 195.332 144.03 195.567C143.557 195.787 143.168 196.122 142.862 196.572C142.556 197.022 142.382 197.504 142.342 198.018C142.302 198.533 142.409 199.038 142.665 199.535C142.92 200.031 143.322 200.465 143.868 200.838C144.424 201.216 144.984 201.435 145.548 201.497C146.104 201.553 146.618 201.47 147.091 201.25C147.554 201.024 147.939 200.686 148.245 200.236C148.551 199.786 148.725 199.304 148.765 198.79C148.803 198.261 148.694 197.748 148.438 197.251C148.174 196.749 147.768 196.311 147.221 195.939ZM147.814 189.438L152.087 192.345C152.439 192.585 152.742 192.681 152.994 192.634C153.237 192.58 153.484 192.368 153.736 191.997L154.339 191.111L155.358 191.804L154.62 192.889C154.164 193.559 153.667 193.957 153.131 194.082C152.594 194.207 151.973 194.029 151.267 193.549L146.995 190.641L146.356 191.58L145.364 190.905L146.003 189.966L144.178 188.724L144.997 187.52L146.822 188.762L148.109 186.871L149.101 187.546L147.814 189.438ZM158.216 187.861C157.838 188.416 157.406 188.851 156.921 189.166C156.427 189.475 155.925 189.643 155.416 189.671C154.898 189.693 154.41 189.567 153.951 189.293L154.797 188.05C155.183 188.261 155.592 188.294 156.025 188.15C156.465 187.998 156.852 187.674 157.188 187.181C157.501 186.722 157.645 186.292 157.622 185.889C157.6 185.486 157.434 185.18 157.125 184.97C156.808 184.754 156.478 184.736 156.136 184.916C155.785 185.09 155.334 185.422 154.782 185.911C154.275 186.352 153.834 186.697 153.459 186.945C153.081 187.178 152.666 187.322 152.216 187.377C151.763 187.417 151.303 187.278 150.836 186.96C150.465 186.708 150.201 186.367 150.042 185.936C149.884 185.506 149.854 185.028 149.954 184.502C150.045 183.97 150.267 183.444 150.621 182.924C151.167 182.122 151.811 181.612 152.553 181.394C153.295 181.176 154.03 181.29 154.76 181.734L153.941 182.938C153.543 182.706 153.134 182.654 152.713 182.78C152.298 182.897 151.931 183.19 151.613 183.657C151.319 184.089 151.177 184.496 151.188 184.878C151.2 185.259 151.355 185.552 151.655 185.756C151.893 185.918 152.142 185.979 152.403 185.937C152.661 185.88 152.917 185.77 153.17 185.607C153.42 185.429 153.743 185.171 154.14 184.835C154.635 184.411 155.064 184.083 155.427 183.853C155.782 183.617 156.174 183.477 156.603 183.434C157.038 183.382 157.48 183.502 157.926 183.793C158.323 184.063 158.605 184.416 158.773 184.853C158.94 185.289 158.979 185.773 158.888 186.305C158.794 186.822 158.57 187.34 158.216 187.861ZM166.758 175.054L161.493 174.684L160.503 176.139L164.273 178.705L163.454 179.909L154.234 173.634L156.26 170.658C156.734 169.961 157.252 169.456 157.814 169.142C158.382 168.819 158.95 168.676 159.518 168.714C160.086 168.752 160.63 168.948 161.15 169.302C161.785 169.734 162.219 170.301 162.452 171.001C162.691 171.693 162.64 172.459 162.301 173.298L167.739 173.612L166.758 175.054ZM159.538 175.482L160.744 173.71C161.188 173.057 161.362 172.46 161.267 171.917C161.163 171.369 160.842 170.912 160.304 170.546C159.757 170.174 159.223 170.049 158.701 170.171C158.185 170.284 157.702 170.672 157.252 171.333L156.046 173.105L159.538 175.482ZM171.201 168.781C170.739 169.46 170.165 169.972 169.478 170.318C168.797 170.654 168.067 170.789 167.286 170.723C166.503 170.641 165.737 170.345 164.987 169.835C164.246 169.331 163.702 168.728 163.354 168.027C163.002 167.31 162.866 166.572 162.944 165.813C163.014 165.047 163.283 164.32 163.751 163.633C164.219 162.945 164.796 162.428 165.483 162.083C166.161 161.731 166.89 161.589 167.67 161.655C168.457 161.713 169.225 161.997 169.974 162.507C170.724 163.017 171.271 163.635 171.616 164.36C171.959 165.071 172.092 165.813 172.017 166.587C171.941 167.362 171.669 168.093 171.201 168.781ZM170.143 168.061C170.437 167.629 170.612 167.154 170.667 166.637C170.722 166.119 170.625 165.608 170.376 165.103C170.132 164.589 169.719 164.134 169.137 163.737C168.555 163.341 167.983 163.12 167.422 163.073C166.86 163.026 166.356 163.122 165.91 163.36C165.455 163.593 165.081 163.925 164.787 164.357C164.487 164.798 164.312 165.273 164.263 165.781C164.211 166.275 164.312 166.77 164.568 167.266C164.824 167.763 165.242 168.209 165.824 168.605C166.415 169.007 166.985 169.24 167.535 169.305C168.091 169.361 168.593 169.277 169.042 169.053C169.482 168.824 169.849 168.493 170.143 168.061ZM170.745 161.374C169.996 160.864 169.445 160.27 169.094 159.592C168.734 158.908 168.579 158.197 168.631 157.458C168.688 156.71 168.951 155.992 169.419 155.304C170.025 154.413 170.739 153.829 171.561 153.55C172.39 153.262 173.25 153.286 174.143 153.623L173.261 154.919C172.736 154.743 172.223 154.748 171.721 154.936C171.225 155.114 170.797 155.468 170.437 155.997C169.969 156.685 169.829 157.403 170.017 158.15C170.197 158.891 170.718 159.556 171.583 160.144C172.456 160.738 173.274 160.986 174.038 160.887C174.803 160.788 175.419 160.394 175.887 159.706C176.247 159.177 176.424 158.652 176.417 158.131C176.41 157.611 176.222 157.128 175.854 156.684L176.736 155.387C177.345 156.086 177.676 156.879 177.73 157.767C177.774 158.649 177.5 159.526 176.906 160.399C176.437 161.087 175.866 161.595 175.191 161.923C174.523 162.242 173.804 162.359 173.036 162.275C172.267 162.191 171.504 161.891 170.745 161.374ZM182.912 151.318L177.775 151.984L180.976 154.162L180.157 155.366L170.369 148.704L171.188 147.5L176.942 151.416L175.627 146.438L176.771 144.758L178.059 150.628L184.028 149.678L182.912 151.318Z" fill="#07074E"/>
<path d="M364.462 146.359C363.995 145.551 363.714 144.744 363.618 143.937C363.533 143.124 363.644 142.382 363.95 141.713C364.257 141.043 364.756 140.509 365.449 140.109L366.669 142.222C366.176 142.568 365.865 143.017 365.737 143.568C365.616 144.131 365.745 144.741 366.125 145.399C366.518 146.081 366.987 146.519 367.53 146.713C368.085 146.901 368.622 146.845 369.142 146.545C369.546 146.311 369.805 146 369.919 145.611C370.04 145.233 370.066 144.825 369.998 144.387C369.936 143.961 369.806 143.389 369.608 142.673C369.363 141.767 369.2 141.006 369.122 140.39C369.061 139.778 369.156 139.169 369.406 138.563C369.657 137.956 370.157 137.437 370.908 137.003C371.6 136.603 372.307 136.426 373.026 136.473C373.746 136.519 374.424 136.774 375.061 137.238C375.698 137.701 376.254 138.343 376.727 139.163C377.4 140.329 377.656 141.452 377.494 142.531C377.35 143.615 376.793 144.49 375.823 145.158L374.563 142.975C374.982 142.687 375.238 142.263 375.329 141.702C375.421 141.141 375.287 140.549 374.927 139.925C374.6 139.359 374.189 138.981 373.694 138.789C373.199 138.598 372.68 138.659 372.137 138.972C371.767 139.186 371.525 139.472 371.409 139.832C371.311 140.196 371.293 140.591 371.355 141.018C371.416 141.444 371.539 142.004 371.724 142.698C371.965 143.621 372.119 144.395 372.186 145.018C372.26 145.652 372.166 146.276 371.904 146.889C371.661 147.507 371.158 148.036 370.396 148.476C369.784 148.83 369.11 148.996 368.373 148.974C367.644 148.964 366.929 148.738 366.227 148.296C365.544 147.86 364.955 147.214 364.462 146.359ZM372.729 149.358C373.71 148.791 374.684 148.491 375.65 148.457C376.634 148.428 377.531 148.649 378.342 149.12C379.153 149.591 379.821 150.282 380.348 151.195C381.015 152.349 381.288 153.462 381.167 154.532C381.064 155.608 380.581 156.572 379.718 157.424L378.488 155.294C378.862 154.847 379.071 154.357 379.117 153.822C379.162 153.288 379.019 152.732 378.685 152.155C378.219 151.346 377.557 150.866 376.699 150.715C375.86 150.568 374.927 150.791 373.899 151.385C372.871 151.978 372.205 152.678 371.901 153.485C371.604 154.303 371.689 155.116 372.155 155.925C372.815 157.068 373.754 157.534 374.972 157.324L376.202 159.454C375.072 159.737 373.999 159.664 372.981 159.235C371.976 158.8 371.146 158.016 370.493 156.885C369.966 155.972 369.701 155.047 369.699 154.11C369.708 153.165 369.965 152.278 370.471 151.447C370.995 150.621 371.748 149.925 372.729 149.358ZM385.713 157.926C385.506 157.568 385.454 157.198 385.556 156.816C385.659 156.433 385.889 156.139 386.247 155.932C386.605 155.725 386.975 155.673 387.358 155.776C387.74 155.878 388.035 156.108 388.241 156.466C388.441 156.813 388.49 157.177 388.388 157.56C388.285 157.942 388.055 158.237 387.697 158.443C387.339 158.65 386.969 158.702 386.586 158.6C386.204 158.497 385.913 158.273 385.713 157.926ZM385.008 159.626L375.465 165.136L374.325 163.162L383.868 157.652L385.008 159.626ZM378.805 171.283C378.372 170.532 378.115 169.78 378.034 169.026C377.971 168.277 378.07 167.596 378.332 166.983C378.606 166.364 379.025 165.876 379.589 165.519L380.769 167.563C380.384 167.831 380.154 168.218 380.077 168.725C380.018 169.236 380.142 169.757 380.448 170.288C380.768 170.842 381.119 171.21 381.5 171.39C381.899 171.575 382.267 171.571 382.601 171.378C382.959 171.171 383.125 170.844 383.098 170.398C383.078 169.963 382.959 169.316 382.74 168.457C382.523 167.628 382.377 166.935 382.301 166.378C382.226 165.821 382.282 165.265 382.47 164.71C382.664 164.167 383.073 163.715 383.697 163.355C384.205 163.062 384.753 162.945 385.343 163.005C385.943 163.059 386.525 163.293 387.087 163.707C387.656 164.133 388.151 164.709 388.571 165.437C389.198 166.522 389.424 167.554 389.249 168.532C389.093 169.515 388.555 170.303 387.635 170.896L386.495 168.922C386.902 168.64 387.143 168.27 387.217 167.812C387.291 167.354 387.175 166.859 386.868 166.328C386.568 165.808 386.24 165.466 385.884 165.303C385.527 165.139 385.188 165.15 384.864 165.337C384.61 165.484 384.45 165.699 384.383 165.984C384.317 166.269 384.308 166.574 384.358 166.899C384.419 167.218 384.524 167.681 384.674 168.287C384.889 169.087 385.025 169.763 385.082 170.315C385.158 170.872 385.104 171.419 384.921 171.955C384.738 172.492 384.344 172.943 383.739 173.307C383.196 173.621 382.624 173.751 382.024 173.697C381.423 173.644 380.842 173.41 380.279 172.995C379.723 172.593 379.232 172.022 378.805 171.283ZM384.147 180.535C383.714 179.785 383.457 179.032 383.376 178.279C383.313 177.53 383.412 176.849 383.674 176.236C383.948 175.616 384.366 175.128 384.93 174.771L386.11 176.815C385.726 177.083 385.496 177.47 385.418 177.977C385.359 178.488 385.483 179.009 385.79 179.54C386.11 180.095 386.461 180.462 386.842 180.642C387.241 180.827 387.608 180.823 387.943 180.63C388.301 180.423 388.467 180.097 388.44 179.65C388.42 179.215 388.3 178.568 388.082 177.709C387.864 176.88 387.718 176.187 387.643 175.63C387.568 175.073 387.624 174.517 387.812 173.962C388.006 173.419 388.415 172.967 389.039 172.607C389.547 172.314 390.095 172.197 390.684 172.258C391.285 172.311 391.866 172.545 392.429 172.959C392.998 173.385 393.493 173.962 393.913 174.689C394.539 175.775 394.766 176.806 394.591 177.785C394.435 178.768 393.897 179.556 392.977 180.148L391.837 178.174C392.244 177.893 392.485 177.523 392.559 177.064C392.633 176.606 392.517 176.111 392.21 175.58C391.91 175.06 391.582 174.719 391.225 174.555C390.869 174.391 390.529 174.402 390.206 174.589C389.952 174.736 389.792 174.951 389.725 175.236C389.659 175.521 389.65 175.826 389.699 176.152C389.76 176.471 389.866 176.933 390.016 177.54C390.231 178.339 390.367 179.015 390.424 179.567C390.499 180.124 390.446 180.671 390.263 181.207C390.08 181.744 389.686 182.195 389.081 182.56C388.538 182.873 387.966 183.003 387.366 182.949C386.765 182.896 386.183 182.662 385.621 182.248C385.065 181.845 384.574 181.274 384.147 180.535ZM389.879 190.463C389.359 189.562 389.091 188.631 389.075 187.671C389.071 186.703 389.318 185.798 389.817 184.956C390.328 184.107 391.074 183.399 392.055 182.832C393.025 182.272 394.009 181.989 395.006 181.983C396.003 181.977 396.917 182.227 397.748 182.733C398.579 183.238 399.258 183.947 399.784 184.859C400.311 185.772 400.586 186.714 400.608 187.686C400.631 188.659 400.39 189.575 399.886 190.436C399.382 191.296 398.645 192.007 397.675 192.567C396.705 193.127 395.719 193.404 394.715 193.398C393.711 193.393 392.781 193.129 391.925 192.607C391.088 192.09 390.406 191.375 389.879 190.463ZM391.594 189.473C391.887 189.981 392.282 190.384 392.778 190.683C393.28 190.993 393.854 191.147 394.499 191.144C395.144 191.141 395.813 190.94 396.505 190.54C397.198 190.14 397.705 189.671 398.025 189.132C398.356 188.586 398.517 188.024 398.506 187.445C398.495 186.866 398.343 186.323 398.05 185.815C397.756 185.307 397.362 184.903 396.866 184.605C396.377 184.317 395.816 184.187 395.185 184.213C394.565 184.232 393.908 184.442 393.215 184.842C392.188 185.435 391.541 186.155 391.275 187.001C391.028 187.852 391.134 188.676 391.594 189.473ZM403.32 194.543C403.972 194.552 404.567 194.716 405.106 195.036C405.663 195.361 406.131 195.853 406.511 196.511L404.468 197.691L404.178 197.189C403.731 196.415 403.195 195.939 402.569 195.762C401.949 195.596 401.155 195.793 400.185 196.353L395.162 199.253L394.022 197.278L403.566 191.768L404.706 193.743L403.32 194.543ZM399.704 207.48C399.271 206.729 399.013 205.977 398.932 205.223C398.869 204.475 398.969 203.794 399.231 203.181C399.504 202.561 399.923 202.073 400.487 201.716L401.667 203.76C401.283 204.028 401.052 204.415 400.975 204.922C400.916 205.433 401.04 205.954 401.347 206.485C401.667 207.04 402.017 207.407 402.398 207.587C402.798 207.772 403.165 207.768 403.5 207.575C403.858 207.368 404.023 207.042 403.997 206.595C403.976 206.16 403.857 205.513 403.638 204.654C403.421 203.825 403.275 203.132 403.2 202.575C403.124 202.018 403.181 201.462 403.368 200.907C403.563 200.364 403.972 199.912 404.595 199.552C405.103 199.259 405.652 199.142 406.241 199.202C406.842 199.256 407.423 199.49 407.986 199.904C408.555 200.33 409.049 200.907 409.469 201.634C410.096 202.72 410.322 203.751 410.148 204.729C409.992 205.713 409.454 206.501 408.534 207.093L407.394 205.119C407.801 204.838 408.041 204.468 408.115 204.009C408.189 203.551 408.073 203.056 407.767 202.525C407.467 202.005 407.138 201.663 406.782 201.5C406.426 201.336 406.086 201.347 405.763 201.534C405.509 201.681 405.348 201.896 405.282 202.181C405.215 202.466 405.207 202.771 405.256 203.097C405.317 203.416 405.422 203.878 405.572 204.484C405.788 205.284 405.924 205.96 405.981 206.512C406.056 207.069 406.002 207.616 405.819 208.152C405.637 208.689 405.242 209.14 404.637 209.505C404.094 209.818 403.523 209.948 402.922 209.894C402.322 209.841 401.74 209.607 401.178 209.193C400.622 208.79 400.131 208.219 399.704 207.48Z" fill="#07074E"/>
<path d="M341.077 147.304C341.679 147.301 342.267 147.467 342.842 147.8C343.416 148.134 343.887 148.619 344.255 149.257C344.65 149.94 344.843 150.648 344.834 151.379C344.826 152.111 344.617 152.805 344.207 153.46C343.806 154.11 343.218 154.659 342.442 155.107C341.675 155.55 340.901 155.787 340.119 155.82C339.337 155.853 338.62 155.688 337.968 155.326C337.32 154.973 336.802 154.459 336.413 153.785C336.034 153.129 335.844 152.469 335.842 151.804C335.846 151.15 335.997 150.569 336.297 150.064L334.897 150.872L334.169 149.611L344.423 143.691L345.151 144.952L341.077 147.304ZM341.698 153.819C342.27 153.488 342.703 153.084 342.994 152.608C343.286 152.132 343.428 151.631 343.42 151.106C343.418 150.59 343.281 150.096 343.009 149.625C342.742 149.163 342.379 148.8 341.918 148.537C341.473 148.277 340.963 148.152 340.391 148.162C339.832 148.177 339.271 148.347 338.708 148.672C338.135 149.003 337.698 149.409 337.398 149.89C337.111 150.376 336.965 150.879 336.958 151.401C336.965 151.926 337.103 152.419 337.369 152.881C337.641 153.352 338 153.718 338.446 153.978C338.906 154.242 339.415 154.367 339.974 154.352C340.541 154.332 341.116 154.155 341.698 153.819ZM347.663 163.543C347.423 163.682 347.161 163.815 346.877 163.942L343.373 157.872C342.652 158.351 342.212 158.943 342.053 159.651C341.91 160.362 342.03 161.05 342.414 161.715C342.729 162.26 343.115 162.641 343.572 162.857C344.044 163.077 344.535 163.138 345.045 163.041L345.829 164.399C344.982 164.617 344.152 164.554 343.338 164.211C342.533 163.863 341.87 163.236 341.347 162.331C340.931 161.61 340.719 160.87 340.712 160.111C340.71 159.361 340.911 158.653 341.316 157.989C341.729 157.319 342.329 156.757 343.114 156.304C343.899 155.85 344.678 155.61 345.451 155.583C346.223 155.556 346.929 155.733 347.569 156.115C348.223 156.501 348.763 157.064 349.19 157.803C349.606 158.523 349.817 159.251 349.823 159.987C349.828 160.723 349.64 161.398 349.256 162.014C348.887 162.633 348.356 163.143 347.663 163.543ZM347.175 162.089C347.655 161.811 348.005 161.468 348.224 161.058C348.452 160.643 348.547 160.2 348.51 159.729C348.486 159.262 348.347 158.807 348.091 158.363C347.723 157.726 347.205 157.298 346.537 157.08C345.875 156.872 345.164 156.943 344.407 157.294L347.175 162.089ZM348.089 164.888C348.865 164.44 349.635 164.205 350.398 164.184C351.17 164.156 351.876 164.322 352.514 164.68C353.157 165.048 353.673 165.569 354.063 166.243C354.447 166.908 354.637 167.568 354.633 168.223C354.629 168.878 354.48 169.451 354.184 169.942L355.57 169.142L356.306 170.417L348.713 174.801L347.977 173.526L349.39 172.71C348.803 172.716 348.217 172.556 347.633 172.227C347.064 171.903 346.591 171.413 346.212 170.757C345.823 170.083 345.637 169.377 345.655 168.64C345.673 167.903 345.891 167.204 346.31 166.544C346.729 165.883 347.322 165.331 348.089 164.888ZM351.787 171.326C352.36 170.995 352.792 170.592 353.084 170.115C353.375 169.639 353.517 169.138 353.51 168.613C353.516 168.092 353.384 167.596 353.112 167.124C352.84 166.653 352.481 166.288 352.035 166.028C351.59 165.768 351.088 165.645 350.529 165.659C349.971 165.674 349.406 165.846 348.833 166.177C348.251 166.513 347.81 166.922 347.509 167.403C347.217 167.88 347.068 168.379 347.061 168.9C347.063 169.416 347.2 169.909 347.472 170.38C347.744 170.852 348.103 171.217 348.549 171.477C349.009 171.741 349.518 171.866 350.077 171.851C350.644 171.832 351.214 171.656 351.787 171.326ZM357.385 174.685L352.909 177.269C352.54 177.483 352.322 177.713 352.255 177.961C352.198 178.203 352.282 178.519 352.506 178.907L353.042 179.835L351.975 180.451L351.319 179.315C350.913 178.613 350.771 177.993 350.892 177.455C351.012 176.917 351.442 176.435 352.181 176.009L356.657 173.425L356.089 172.441L357.128 171.841L357.696 172.825L359.608 171.721L360.336 172.981L358.424 174.085L359.568 176.067L358.529 176.667L357.385 174.685ZM354.284 184.739C353.948 184.157 353.744 183.579 353.671 183.005C353.608 182.426 353.674 181.901 353.871 181.43C354.076 180.955 354.402 180.569 354.848 180.275L355.6 181.578C355.242 181.833 355.034 182.187 354.975 182.64C354.922 183.102 355.044 183.592 355.343 184.109C355.62 184.589 355.945 184.907 356.318 185.061C356.69 185.216 357.038 185.2 357.361 185.013C357.694 184.821 357.854 184.532 357.84 184.146C357.835 183.754 357.733 183.203 357.533 182.494C357.355 181.845 357.236 181.298 357.176 180.852C357.131 180.41 357.181 179.975 357.327 179.546C357.488 179.12 357.813 178.766 358.303 178.483C358.691 178.259 359.113 178.17 359.57 178.214C360.026 178.258 360.47 178.439 360.9 178.758C361.339 179.071 361.716 179.5 362.031 180.045C362.516 180.885 362.696 181.687 362.57 182.449C362.443 183.212 362.021 183.825 361.304 184.289L360.576 183.028C360.957 182.771 361.182 182.425 361.252 181.991C361.327 181.566 361.223 181.109 360.94 180.619C360.679 180.166 360.374 179.862 360.025 179.706C359.676 179.55 359.345 179.563 359.031 179.744C358.781 179.888 358.619 180.087 358.543 180.34C358.482 180.597 358.47 180.875 358.507 181.174C358.559 181.476 358.65 181.879 358.781 182.383C358.948 183.013 359.056 183.542 359.105 183.969C359.164 184.391 359.12 184.805 358.972 185.21C358.829 185.625 358.53 185.97 358.073 186.246C357.658 186.486 357.217 186.587 356.751 186.548C356.285 186.509 355.833 186.333 355.393 186.02C354.969 185.711 354.599 185.284 354.284 184.739ZM369.729 195.425C368.925 195.889 368.095 195.999 367.239 195.754C366.398 195.513 365.652 194.829 365.002 193.702L363.93 191.845L359.897 194.173L359.169 192.912L368.827 187.336L370.627 190.454C371.257 191.544 371.471 192.523 371.269 193.39C371.074 194.267 370.56 194.945 369.729 195.425ZM366.041 193.102C366.446 193.804 366.897 194.233 367.394 194.39C367.891 194.546 368.421 194.462 368.985 194.137C370.176 193.449 370.377 192.421 369.588 191.054L368.516 189.197L364.969 191.245L366.041 193.102ZM367.355 198.257C368.131 197.809 368.9 197.574 369.663 197.553C370.436 197.525 371.141 197.691 371.779 198.049C372.423 198.417 372.939 198.938 373.328 199.612C373.712 200.277 373.902 200.937 373.899 201.592C373.895 202.247 373.745 202.82 373.45 203.311L374.836 202.511L375.572 203.786L367.978 208.17L367.242 206.895L368.656 206.079C368.068 206.085 367.483 205.925 366.899 205.596C366.33 205.272 365.856 204.782 365.477 204.126C365.088 203.452 364.902 202.746 364.92 202.009C364.938 201.272 365.157 200.573 365.576 199.913C365.995 199.252 366.588 198.7 367.355 198.257ZM371.053 204.695C371.625 204.364 372.058 203.961 372.349 203.484C372.641 203.008 372.783 202.507 372.775 201.982C372.782 201.461 372.65 200.965 372.378 200.494C372.106 200.022 371.747 199.657 371.301 199.397C370.855 199.137 370.353 199.014 369.795 199.028C369.237 199.043 368.671 199.215 368.099 199.546C367.517 199.882 367.075 200.291 366.774 200.772C366.483 201.249 366.333 201.748 366.327 202.269C366.329 202.785 366.466 203.278 366.738 203.75C367.01 204.221 367.369 204.586 367.815 204.846C368.275 205.11 368.784 205.235 369.342 205.22C369.91 205.201 370.48 205.025 371.053 204.695ZM376.13 207.985C376.708 207.984 377.282 208.146 377.851 208.47C378.435 208.798 378.916 209.29 379.294 209.946C379.684 210.62 379.874 211.323 379.865 212.055C379.862 212.796 379.656 213.494 379.246 214.149C378.845 214.8 378.257 215.349 377.481 215.797C376.714 216.239 375.94 216.477 375.158 216.509C374.376 216.542 373.659 216.377 373.007 216.015C372.359 215.662 371.841 215.148 371.452 214.474C371.078 213.827 370.891 213.172 370.889 212.508C370.902 211.847 371.051 211.263 371.336 210.753L366.334 213.641L365.606 212.38L376.802 205.916L377.53 207.177L376.13 207.985ZM376.737 214.508C377.31 214.177 377.742 213.774 378.033 213.298C378.325 212.821 378.467 212.321 378.459 211.795C378.457 211.279 378.32 210.786 378.048 210.315C377.781 209.853 377.418 209.49 376.957 209.226C376.512 208.966 376.002 208.841 375.43 208.852C374.871 208.866 374.31 209.036 373.747 209.361C373.174 209.692 372.737 210.098 372.437 210.58C372.15 211.065 372.004 211.569 371.997 212.09C372.004 212.615 372.142 213.109 372.408 213.571C372.68 214.042 373.039 214.407 373.485 214.667C373.945 214.931 374.454 215.056 375.013 215.042C375.58 215.022 376.155 214.844 376.737 214.508ZM382.702 224.233C382.462 224.371 382.2 224.504 381.916 224.631L378.412 218.562C377.691 219.04 377.251 219.633 377.092 220.34C376.949 221.051 377.069 221.739 377.453 222.404C377.768 222.949 378.154 223.33 378.611 223.546C379.083 223.766 379.574 223.828 380.084 223.73L380.868 225.088C380.021 225.306 379.191 225.244 378.377 224.901C377.572 224.552 376.909 223.926 376.386 223.02C375.97 222.3 375.758 221.56 375.751 220.8C375.749 220.05 375.95 219.343 376.355 218.678C376.769 218.008 377.368 217.447 378.153 216.993C378.938 216.54 379.717 216.3 380.49 216.272C381.262 216.245 381.968 216.423 382.608 216.805C383.262 217.191 383.802 217.753 384.229 218.492C384.645 219.213 384.856 219.941 384.862 220.676C384.868 221.412 384.679 222.088 384.295 222.703C383.926 223.323 383.395 223.833 382.702 224.233ZM382.214 222.778C382.694 222.501 383.044 222.157 383.263 221.747C383.491 221.332 383.586 220.889 383.549 220.418C383.525 219.951 383.386 219.496 383.13 219.053C382.762 218.415 382.244 217.988 381.576 217.77C380.914 217.561 380.203 217.632 379.446 217.984L382.214 222.778ZM386.664 225.846C387.226 225.817 387.744 225.936 388.219 226.204C388.699 226.481 389.11 226.915 389.452 227.506L388.149 228.258L387.957 227.926C387.141 226.513 385.966 226.249 384.433 227.134L380.304 229.518L379.576 228.257L387.169 223.873L387.897 225.134L386.664 225.846Z" fill="#07074E"/>
<path d="M243.758 332.416L240.558 326.856H238.818V332.416H236.538V318.516H241.338C242.405 318.516 243.305 318.702 244.038 319.076C244.785 319.449 245.338 319.949 245.698 320.576C246.071 321.202 246.258 321.902 246.258 322.676C246.258 323.582 245.991 324.409 245.458 325.156C244.938 325.889 244.131 326.389 243.038 326.656L246.478 332.416H243.758ZM238.818 325.036H241.338C242.191 325.036 242.831 324.822 243.258 324.396C243.698 323.969 243.918 323.396 243.918 322.676C243.918 321.956 243.705 321.396 243.278 320.996C242.851 320.582 242.205 320.376 241.338 320.376H238.818V325.036ZM253.955 332.596C252.915 332.596 251.975 332.362 251.135 331.896C250.295 331.416 249.635 330.749 249.155 329.896C248.675 329.029 248.435 328.029 248.435 326.896C248.435 325.776 248.681 324.782 249.175 323.916C249.668 323.049 250.341 322.382 251.195 321.916C252.048 321.449 253.001 321.216 254.055 321.216C255.108 321.216 256.061 321.449 256.915 321.916C257.768 322.382 258.441 323.049 258.935 323.916C259.428 324.782 259.675 325.776 259.675 326.896C259.675 328.016 259.421 329.009 258.915 329.876C258.408 330.742 257.715 331.416 256.835 331.896C255.968 332.362 255.008 332.596 253.955 332.596ZM253.955 330.616C254.541 330.616 255.088 330.476 255.595 330.196C256.115 329.916 256.535 329.496 256.855 328.936C257.175 328.376 257.335 327.696 257.335 326.896C257.335 326.096 257.181 325.422 256.875 324.876C256.568 324.316 256.161 323.896 255.655 323.616C255.148 323.336 254.601 323.196 254.015 323.196C253.428 323.196 252.881 323.336 252.375 323.616C251.881 323.896 251.488 324.316 251.195 324.876C250.901 325.422 250.755 326.096 250.755 326.896C250.755 328.082 251.055 329.002 251.655 329.656C252.268 330.296 253.035 330.616 253.955 330.616ZM261.169 326.896C261.169 325.762 261.395 324.769 261.849 323.916C262.315 323.049 262.955 322.382 263.769 321.916C264.582 321.449 265.515 321.216 266.569 321.216C267.902 321.216 269.002 321.536 269.869 322.176C270.749 322.802 271.342 323.702 271.649 324.876H269.189C268.989 324.329 268.669 323.902 268.229 323.596C267.789 323.289 267.235 323.136 266.569 323.136C265.635 323.136 264.889 323.469 264.329 324.136C263.782 324.789 263.509 325.709 263.509 326.896C263.509 328.082 263.782 329.009 264.329 329.676C264.889 330.342 265.635 330.676 266.569 330.676C267.889 330.676 268.762 330.096 269.189 328.936H271.649C271.329 330.056 270.729 330.949 269.849 331.616C268.969 332.269 267.875 332.596 266.569 332.596C265.515 332.596 264.582 332.362 263.769 331.896C262.955 331.416 262.315 330.749 261.849 329.896C261.395 329.029 261.169 328.029 261.169 326.896ZM278.281 326.916L283.361 332.416H280.281L276.201 327.676V332.416H273.921V317.616H276.201V326.216L280.201 321.396H283.361L278.281 326.916Z" fill="#07074E"/>
<path d="M204.791 353.28C205.089 352.757 205.527 352.33 206.103 352C206.679 351.669 207.335 351.504 208.071 351.504C208.86 351.504 209.569 351.69 210.199 352.064C210.828 352.437 211.324 352.965 211.687 353.648C212.049 354.32 212.231 355.104 212.231 356C212.231 356.885 212.049 357.674 211.687 358.368C211.324 359.061 210.823 359.6 210.183 359.984C209.553 360.368 208.849 360.56 208.071 360.56C207.313 360.56 206.647 360.394 206.071 360.064C205.505 359.733 205.079 359.312 204.791 358.8V360.416H203.335V348.576H204.791V353.28ZM210.743 356C210.743 355.338 210.609 354.762 210.343 354.272C210.076 353.781 209.713 353.408 209.255 353.152C208.807 352.896 208.311 352.768 207.767 352.768C207.233 352.768 206.737 352.901 206.279 353.168C205.831 353.424 205.468 353.802 205.191 354.304C204.924 354.794 204.791 355.365 204.791 356.016C204.791 356.677 204.924 357.258 205.191 357.76C205.468 358.25 205.831 358.629 206.279 358.896C206.737 359.152 207.233 359.28 207.767 359.28C208.311 359.28 208.807 359.152 209.255 358.896C209.713 358.629 210.076 358.25 210.343 357.76C210.609 357.258 210.743 356.672 210.743 356ZM222.147 355.696C222.147 355.973 222.131 356.266 222.099 356.576H215.091C215.144 357.44 215.438 358.117 215.971 358.608C216.515 359.088 217.171 359.328 217.939 359.328C218.568 359.328 219.091 359.184 219.507 358.896C219.934 358.597 220.232 358.202 220.403 357.712H221.971C221.736 358.554 221.267 359.242 220.563 359.776C219.859 360.298 218.984 360.56 217.939 360.56C217.107 360.56 216.36 360.373 215.699 360C215.048 359.626 214.536 359.098 214.163 358.416C213.79 357.722 213.603 356.922 213.603 356.016C213.603 355.109 213.784 354.314 214.147 353.632C214.51 352.949 215.016 352.426 215.667 352.064C216.328 351.69 217.086 351.504 217.939 351.504C218.771 351.504 219.507 351.685 220.147 352.048C220.787 352.41 221.278 352.912 221.619 353.552C221.971 354.181 222.147 354.896 222.147 355.696ZM220.643 355.392C220.643 354.837 220.52 354.362 220.275 353.968C220.03 353.562 219.694 353.258 219.267 353.056C218.851 352.842 218.387 352.736 217.875 352.736C217.139 352.736 216.51 352.97 215.987 353.44C215.475 353.909 215.182 354.56 215.107 355.392H220.643ZM223.525 356C223.525 355.104 223.706 354.32 224.069 353.648C224.432 352.965 224.928 352.437 225.557 352.064C226.197 351.69 226.906 351.504 227.685 351.504C228.453 351.504 229.12 351.669 229.685 352C230.25 352.33 230.672 352.746 230.949 353.248V351.648H232.421V360.416H230.949V358.784C230.661 359.296 230.229 359.722 229.653 360.064C229.088 360.394 228.426 360.56 227.669 360.56C226.89 360.56 226.186 360.368 225.557 359.984C224.928 359.6 224.432 359.061 224.069 358.368C223.706 357.674 223.525 356.885 223.525 356ZM230.949 356.016C230.949 355.354 230.816 354.778 230.549 354.288C230.282 353.797 229.92 353.424 229.461 353.168C229.013 352.901 228.517 352.768 227.973 352.768C227.429 352.768 226.933 352.896 226.485 353.152C226.037 353.408 225.68 353.781 225.413 354.272C225.146 354.762 225.013 355.338 225.013 356C225.013 356.672 225.146 357.258 225.413 357.76C225.68 358.25 226.037 358.629 226.485 358.896C226.933 359.152 227.429 359.28 227.973 359.28C228.517 359.28 229.013 359.152 229.461 358.896C229.92 358.629 230.282 358.25 230.549 357.76C230.816 357.258 230.949 356.677 230.949 356.016ZM236.657 352.848V358.016C236.657 358.442 236.748 358.746 236.929 358.928C237.111 359.098 237.425 359.184 237.873 359.184H238.945V360.416H237.633C236.823 360.416 236.215 360.229 235.809 359.856C235.404 359.482 235.201 358.869 235.201 358.016V352.848H234.065V351.648H235.201V349.44H236.657V351.648H238.945V352.848H236.657ZM243.814 360.56C243.142 360.56 242.539 360.448 242.006 360.224C241.472 359.989 241.051 359.669 240.742 359.264C240.432 358.848 240.262 358.373 240.23 357.84H241.734C241.776 358.277 241.979 358.634 242.342 358.912C242.715 359.189 243.2 359.328 243.798 359.328C244.352 359.328 244.79 359.205 245.11 358.96C245.43 358.714 245.59 358.405 245.59 358.032C245.59 357.648 245.419 357.365 245.078 357.184C244.736 356.992 244.208 356.805 243.494 356.624C242.843 356.453 242.31 356.282 241.894 356.112C241.488 355.93 241.136 355.669 240.838 355.328C240.55 354.976 240.406 354.517 240.406 353.952C240.406 353.504 240.539 353.093 240.806 352.72C241.072 352.346 241.451 352.053 241.942 351.84C242.432 351.616 242.992 351.504 243.622 351.504C244.592 351.504 245.376 351.749 245.974 352.24C246.571 352.73 246.891 353.402 246.934 354.256H245.478C245.446 353.797 245.259 353.429 244.918 353.152C244.587 352.874 244.139 352.736 243.574 352.736C243.051 352.736 242.635 352.848 242.326 353.072C242.016 353.296 241.862 353.589 241.862 353.952C241.862 354.24 241.952 354.48 242.134 354.672C242.326 354.853 242.56 355.002 242.838 355.12C243.126 355.226 243.52 355.349 244.022 355.488C244.651 355.658 245.163 355.829 245.558 356C245.952 356.16 246.288 356.405 246.566 356.736C246.854 357.066 247.003 357.498 247.014 358.032C247.014 358.512 246.88 358.944 246.614 359.328C246.347 359.712 245.968 360.016 245.478 360.24C244.998 360.453 244.443 360.56 243.814 360.56ZM256.871 360.528C256.135 360.528 255.473 360.4 254.887 360.144C254.311 359.877 253.857 359.514 253.527 359.056C253.196 358.586 253.025 358.048 253.015 357.44H254.567C254.62 357.962 254.833 358.405 255.207 358.768C255.591 359.12 256.145 359.296 256.871 359.296C257.564 359.296 258.108 359.125 258.503 358.784C258.908 358.432 259.111 357.984 259.111 357.44C259.111 357.013 258.993 356.666 258.759 356.4C258.524 356.133 258.231 355.93 257.879 355.792C257.527 355.653 257.052 355.504 256.455 355.344C255.719 355.152 255.127 354.96 254.679 354.768C254.241 354.576 253.863 354.277 253.543 353.872C253.233 353.456 253.079 352.901 253.079 352.208C253.079 351.6 253.233 351.061 253.543 350.592C253.852 350.122 254.284 349.76 254.839 349.504C255.404 349.248 256.049 349.12 256.775 349.12C257.82 349.12 258.673 349.381 259.335 349.904C260.007 350.426 260.385 351.12 260.471 351.984H258.871C258.817 351.557 258.593 351.184 258.199 350.864C257.804 350.533 257.281 350.368 256.631 350.368C256.023 350.368 255.527 350.528 255.143 350.848C254.759 351.157 254.567 351.594 254.567 352.16C254.567 352.565 254.679 352.896 254.903 353.152C255.137 353.408 255.42 353.605 255.751 353.744C256.092 353.872 256.567 354.021 257.175 354.192C257.911 354.394 258.503 354.597 258.951 354.8C259.399 354.992 259.783 355.296 260.103 355.712C260.423 356.117 260.583 356.672 260.583 357.376C260.583 357.92 260.439 358.432 260.151 358.912C259.863 359.392 259.436 359.781 258.871 360.08C258.305 360.378 257.639 360.528 256.871 360.528ZM262.181 356.016C262.181 355.109 262.362 354.32 262.725 353.648C263.088 352.965 263.589 352.437 264.229 352.064C264.88 351.69 265.621 351.504 266.453 351.504C267.53 351.504 268.416 351.765 269.109 352.288C269.813 352.81 270.277 353.536 270.501 354.464H268.933C268.784 353.93 268.49 353.509 268.053 353.2C267.626 352.89 267.093 352.736 266.453 352.736C265.621 352.736 264.949 353.024 264.437 353.6C263.925 354.165 263.669 354.97 263.669 356.016C263.669 357.072 263.925 357.888 264.437 358.464C264.949 359.04 265.621 359.328 266.453 359.328C267.093 359.328 267.626 359.178 268.053 358.88C268.48 358.581 268.773 358.154 268.933 357.6H270.501C270.266 358.496 269.797 359.216 269.093 359.76C268.389 360.293 267.509 360.56 266.453 360.56C265.621 360.56 264.88 360.373 264.229 360C263.589 359.626 263.088 359.098 262.725 358.416C262.362 357.733 262.181 356.933 262.181 356.016ZM273.196 350.224C272.919 350.224 272.684 350.128 272.492 349.936C272.3 349.744 272.204 349.509 272.204 349.232C272.204 348.954 272.3 348.72 272.492 348.528C272.684 348.336 272.919 348.24 273.196 348.24C273.463 348.24 273.687 348.336 273.868 348.528C274.06 348.72 274.156 348.954 274.156 349.232C274.156 349.509 274.06 349.744 273.868 349.936C273.687 350.128 273.463 350.224 273.196 350.224ZM273.9 351.648V360.416H272.444V351.648H273.9ZM279.485 360.56C278.813 360.56 278.211 360.448 277.677 360.224C277.144 359.989 276.723 359.669 276.413 359.264C276.104 358.848 275.933 358.373 275.901 357.84H277.405C277.448 358.277 277.651 358.634 278.013 358.912C278.387 359.189 278.872 359.328 279.469 359.328C280.024 359.328 280.461 359.205 280.781 358.96C281.101 358.714 281.261 358.405 281.261 358.032C281.261 357.648 281.091 357.365 280.749 357.184C280.408 356.992 279.88 356.805 279.165 356.624C278.515 356.453 277.981 356.282 277.565 356.112C277.16 355.93 276.808 355.669 276.509 355.328C276.221 354.976 276.077 354.517 276.077 353.952C276.077 353.504 276.211 353.093 276.477 352.72C276.744 352.346 277.123 352.053 277.613 351.84C278.104 351.616 278.664 351.504 279.293 351.504C280.264 351.504 281.048 351.749 281.645 352.24C282.243 352.73 282.563 353.402 282.605 354.256H281.149C281.117 353.797 280.931 353.429 280.589 353.152C280.259 352.874 279.811 352.736 279.245 352.736C278.723 352.736 278.307 352.848 277.997 353.072C277.688 353.296 277.533 353.589 277.533 353.952C277.533 354.24 277.624 354.48 277.805 354.672C277.997 354.853 278.232 355.002 278.509 355.12C278.797 355.226 279.192 355.349 279.693 355.488C280.323 355.658 280.835 355.829 281.229 356C281.624 356.16 281.96 356.405 282.237 356.736C282.525 357.066 282.675 357.498 282.685 358.032C282.685 358.512 282.552 358.944 282.285 359.328C282.019 359.712 281.64 360.016 281.149 360.24C280.669 360.453 280.115 360.56 279.485 360.56ZM287.845 360.56C287.173 360.56 286.57 360.448 286.037 360.224C285.503 359.989 285.082 359.669 284.773 359.264C284.463 358.848 284.293 358.373 284.261 357.84H285.765C285.807 358.277 286.01 358.634 286.373 358.912C286.746 359.189 287.231 359.328 287.829 359.328C288.383 359.328 288.821 359.205 289.141 358.96C289.461 358.714 289.621 358.405 289.621 358.032C289.621 357.648 289.45 357.365 289.109 357.184C288.767 356.992 288.239 356.805 287.525 356.624C286.874 356.453 286.341 356.282 285.925 356.112C285.519 355.93 285.167 355.669 284.869 355.328C284.581 354.976 284.437 354.517 284.437 353.952C284.437 353.504 284.57 353.093 284.837 352.72C285.103 352.346 285.482 352.053 285.973 351.84C286.463 351.616 287.023 351.504 287.653 351.504C288.623 351.504 289.407 351.749 290.005 352.24C290.602 352.73 290.922 353.402 290.965 354.256H289.509C289.477 353.797 289.29 353.429 288.949 353.152C288.618 352.874 288.17 352.736 287.605 352.736C287.082 352.736 286.666 352.848 286.357 353.072C286.047 353.296 285.893 353.589 285.893 353.952C285.893 354.24 285.983 354.48 286.165 354.672C286.357 354.853 286.591 355.002 286.869 355.12C287.157 355.226 287.551 355.349 288.053 355.488C288.682 355.658 289.194 355.829 289.589 356C289.983 356.16 290.319 356.405 290.597 356.736C290.885 357.066 291.034 357.498 291.045 358.032C291.045 358.512 290.911 358.944 290.645 359.328C290.378 359.712 289.999 360.016 289.509 360.24C289.029 360.453 288.474 360.56 287.845 360.56ZM296.924 360.56C296.103 360.56 295.356 360.373 294.684 360C294.023 359.626 293.5 359.098 293.116 358.416C292.743 357.722 292.556 356.922 292.556 356.016C292.556 355.12 292.748 354.33 293.132 353.648C293.527 352.954 294.06 352.426 294.732 352.064C295.404 351.69 296.156 351.504 296.988 351.504C297.82 351.504 298.572 351.69 299.244 352.064C299.916 352.426 300.444 352.949 300.828 353.632C301.223 354.314 301.42 355.109 301.42 356.016C301.42 356.922 301.217 357.722 300.812 358.416C300.417 359.098 299.879 359.626 299.196 360C298.513 360.373 297.756 360.56 296.924 360.56ZM296.924 359.28C297.447 359.28 297.937 359.157 298.396 358.912C298.855 358.666 299.223 358.298 299.5 357.808C299.788 357.317 299.932 356.72 299.932 356.016C299.932 355.312 299.793 354.714 299.516 354.224C299.239 353.733 298.876 353.37 298.428 353.136C297.98 352.89 297.495 352.768 296.972 352.768C296.439 352.768 295.948 352.89 295.5 353.136C295.063 353.37 294.711 353.733 294.444 354.224C294.177 354.714 294.044 355.312 294.044 356.016C294.044 356.73 294.172 357.333 294.428 357.824C294.695 358.314 295.047 358.682 295.484 358.928C295.921 359.162 296.401 359.28 296.924 359.28ZM304.791 353.072C305.047 352.57 305.409 352.181 305.879 351.904C306.359 351.626 306.94 351.488 307.623 351.488V352.992H307.239C305.607 352.992 304.791 353.877 304.791 355.648V360.416H303.335V351.648H304.791V353.072ZM312.407 360.56C311.735 360.56 311.133 360.448 310.599 360.224C310.066 359.989 309.645 359.669 309.335 359.264C309.026 358.848 308.855 358.373 308.823 357.84H310.327C310.37 358.277 310.573 358.634 310.935 358.912C311.309 359.189 311.794 359.328 312.391 359.328C312.946 359.328 313.383 359.205 313.703 358.96C314.023 358.714 314.183 358.405 314.183 358.032C314.183 357.648 314.013 357.365 313.671 357.184C313.33 356.992 312.802 356.805 312.087 356.624C311.437 356.453 310.903 356.282 310.487 356.112C310.082 355.93 309.73 355.669 309.431 355.328C309.143 354.976 308.999 354.517 308.999 353.952C308.999 353.504 309.133 353.093 309.399 352.72C309.666 352.346 310.045 352.053 310.535 351.84C311.026 351.616 311.586 351.504 312.215 351.504C313.186 351.504 313.97 351.749 314.567 352.24C315.165 352.73 315.485 353.402 315.527 354.256H314.071C314.039 353.797 313.853 353.429 313.511 353.152C313.181 352.874 312.733 352.736 312.167 352.736C311.645 352.736 311.229 352.848 310.919 353.072C310.61 353.296 310.455 353.589 310.455 353.952C310.455 354.24 310.546 354.48 310.727 354.672C310.919 354.853 311.154 355.002 311.431 355.12C311.719 355.226 312.114 355.349 312.615 355.488C313.245 355.658 313.757 355.829 314.151 356C314.546 356.16 314.882 356.405 315.159 356.736C315.447 357.066 315.597 357.498 315.607 358.032C315.607 358.512 315.474 358.944 315.207 359.328C314.941 359.712 314.562 360.016 314.071 360.24C313.591 360.453 313.037 360.56 312.407 360.56Z" fill="#07074E"/>
<defs>
<linearGradient id="paint0_linear_35_863" x1="157.471" y1="268.993" x2="145.954" y2="298.254" gradientUnits="userSpaceOnUse">
<stop stop-color="#9E958E"/>
<stop offset="0.46" stop-color="#8E8884"/>
<stop offset="1" stop-color="#757575"/>
</linearGradient>
<linearGradient id="paint1_linear_35_863" x1="137.782" y1="293.767" x2="147.36" y2="283.117" gradientUnits="userSpaceOnUse">
<stop stop-color="#37474F"/>
<stop offset="0.612" stop-color="#42565F" stop-opacity="0.192"/>
<stop offset="0.757" stop-color="#455A64" stop-opacity="0"/>
</linearGradient>
<linearGradient id="paint2_linear_35_863" x1="160.455" y1="280.408" x2="154.261" y2="266.669" gradientUnits="userSpaceOnUse">
<stop stop-color="#9E958E"/>
<stop offset="0.442" stop-color="#AEA298"/>
<stop offset="1" stop-color="#C9B8A9"/>
</linearGradient>
<linearGradient id="paint3_linear_35_863" x1="144.942" y1="289.869" x2="147.442" y2="276.306" gradientUnits="userSpaceOnUse">
<stop stop-color="#4C5C64"/>
<stop offset="1" stop-color="#455A64" stop-opacity="0"/>
</linearGradient>
<linearGradient id="paint4_linear_35_863" x1="146" y1="268.837" x2="153.263" y2="268.837" gradientUnits="userSpaceOnUse">
<stop stop-color="#4C5C64"/>
<stop offset="1" stop-color="#455A64" stop-opacity="0"/>
</linearGradient>
<linearGradient id="paint5_linear_35_863" x1="157.382" y1="282.884" x2="165.971" y2="286.424" gradientUnits="userSpaceOnUse">
<stop stop-color="#9E958E"/>
<stop offset="0.25" stop-color="#AEA298"/>
<stop offset="0.566" stop-color="#C9B8A9"/>
</linearGradient>
<linearGradient id="paint6_linear_35_863" x1="161.728" y1="294.572" x2="159.968" y2="287.629" gradientUnits="userSpaceOnUse">
<stop stop-color="#37474F"/>
<stop offset="0.808" stop-color="#42565F" stop-opacity="0.192"/>
<stop offset="1" stop-color="#455A64" stop-opacity="0"/>
</linearGradient>
<clipPath id="clip0_35_863">
<rect width="32" height="32" fill="white" transform="translate(242.767 128.942)"/>
</clipPath>
<clipPath id="clip1_35_863">
<rect width="32" height="32" fill="white" transform="translate(349.966 263.733)"/>
</clipPath>
</defs>
</svg>
