<svg width="72" height="72" viewBox="0 0 33 32" fill="none" xmlns="http://www.w3.org/2000/svg">
    <path
        d="M16.5 2C15.117 2 13.969 2.969 13.625 4.25C13.273 4.105 12.902 4 12.5 4C10.855 4 9.49998 5.355 9.49998 7V17.75L8.62498 16.875C8.05911 16.3157 7.29558 16.0021 6.49998 16.0021C5.70438 16.0021 4.94085 16.3157 4.37498 16.875C3.81572 17.4409 3.50208 18.2044 3.50208 19C3.50208 19.7956 3.81572 20.5591 4.37498 21.125L11.156 27.906C12.332 29.078 13.957 30 15.875 30H20.5C24.355 30 27.5 26.855 27.5 23V11C27.5 9.355 26.145 8 24.5 8C24.1583 8.00427 23.8199 8.06789 23.5 8.188V7C23.5 5.355 22.145 4 20.5 4C20.098 4 19.727 4.105 19.375 4.25C19.031 2.969 17.883 2 16.5 2ZM16.5 4C17.066 4 17.5 4.434 17.5 5V15H19.5V7C19.5 6.434 19.934 6 20.5 6C21.066 6 21.5 6.434 21.5 7V15H23.5V11C23.5 10.434 23.934 10 24.5 10C25.066 10 25.5 10.434 25.5 11V23C25.5 25.773 23.273 28 20.5 28H15.875C14.602 28 13.508 27.379 12.594 26.469L5.78098 19.719C5.68622 19.6248 5.61103 19.5127 5.55972 19.3893C5.5084 19.266 5.48199 19.1336 5.48199 19C5.48199 18.8664 5.5084 18.734 5.55972 18.6107C5.61103 18.4873 5.68622 18.3752 5.78098 18.281C5.87521 18.1862 5.98724 18.111 6.11064 18.0597C6.23403 18.0084 6.36635 17.982 6.49998 17.982C6.63362 17.982 6.76593 18.0084 6.88933 18.0597C7.01272 18.111 7.12475 18.1862 7.21898 18.281L9.78098 20.875L11.5 22.594V7C11.5 6.434 11.934 6 12.5 6C13.066 6 13.5 6.434 13.5 7V15H15.5V5C15.5 4.434 15.934 4 16.5 4Z"
        fill="currentColor" />
</svg>