<svg width="90" height="90" viewBox="0 0 82 83" fill="none" xmlns="http://www.w3.org/2000/svg">
    <path
        d="M41.0855 55.5024C39.7189 55.5024 38.5663 55.0183 37.6279 54.0503C36.6871 53.0822 36.2737 51.9433 36.3876 50.6336C36.5584 48.2419 37.1279 46.1635 38.0959 44.3982C39.064 42.6329 40.6015 40.8107 42.7084 38.9315C45.0432 36.8815 46.8221 35.1014 48.0453 33.5913C49.2707 32.0834 49.8835 30.3614 49.8835 28.4253C49.8835 26.0906 49.101 24.1544 47.5362 22.6169C45.9691 21.0794 43.7904 20.3107 41.0001 20.3107C39.1779 20.3107 37.6267 20.6945 36.3466 21.4621C35.0642 22.232 34.0244 23.1864 33.2272 24.3253C32.43 25.4642 31.4483 26.2329 30.282 26.6315C29.1135 27.0301 27.9883 27.0017 26.9064 26.5461C25.5966 25.9767 24.7003 25.0371 24.2174 23.7274C23.7323 22.4176 23.8314 21.1933 24.5147 20.0544C26.1661 17.4919 28.3869 15.3565 31.1772 13.6482C33.9675 11.9399 37.2418 11.0857 41.0001 11.0857C46.9793 11.0857 51.5781 12.7519 54.7966 16.0843C58.0128 19.4144 59.621 23.4142 59.621 28.0836C59.621 30.9308 59.0094 33.3658 57.7862 35.3884C56.5608 37.4088 54.6383 39.7003 52.0189 42.2628C50.0828 44.085 48.7161 45.5656 47.9189 46.7044C47.1216 47.8433 46.5807 49.1531 46.2959 50.6336C46.0682 52.0572 45.4703 53.2246 44.5022 54.1357C43.5341 55.0468 42.3953 55.5024 41.0855 55.5024ZM41.0001 76.0024C39.1209 76.0024 37.5128 75.3338 36.1758 73.9968C34.8364 72.6574 34.1668 71.0482 34.1668 69.169C34.1668 67.2899 34.8364 65.6806 36.1758 64.3413C37.5128 63.0042 39.1209 62.3357 41.0001 62.3357C42.8793 62.3357 44.4885 63.0042 45.8279 64.3413C47.1649 65.6806 47.8334 67.2899 47.8334 69.169C47.8334 71.0482 47.1649 72.6574 45.8279 73.9968C44.4885 75.3338 42.8793 76.0024 41.0001 76.0024Z"
        fill="#3B4584" />
</svg>