<svg width="33" height="32" viewBox="0 0 33 32" fill="none" xmlns="http://www.w3.org/2000/svg">
<path d="M15.5 6C14.9937 6.00168 14.4961 6.13149 14.0536 6.37734C13.611 6.62318 13.2379 6.97706 12.969 7.406C12.5234 7.14429 12.0168 7.00428 11.5 7C9.85499 7 8.49999 8.355 8.49999 10V13.656L6.40599 16.344C5.12899 17.996 5.21499 20.367 6.59399 21.937L8.96899 24.625C9.62467 25.3717 10.4322 25.9698 11.3376 26.3794C12.2429 26.7889 13.2253 27.0005 14.219 27H19.5C23.355 27 26.5 23.855 26.5 20V11C26.5 9.355 25.145 8 23.5 8C22.965 8 22.469 8.156 22.031 8.406C21.7621 7.97706 21.389 7.62318 20.9464 7.37734C20.5038 7.13149 20.0062 7.00168 19.5 7C18.965 7 18.469 7.156 18.031 7.406C17.7621 6.97706 17.389 6.62318 16.9464 6.37734C16.5038 6.13149 16.0062 6.00168 15.5 6ZM15.5 8C16.066 8 16.5 8.434 16.5 9V12H18.5V10C18.5 9.434 18.934 9 19.5 9C20.066 9 20.5 9.434 20.5 10V12H22.5V11C22.5 10.434 22.934 10 23.5 10C24.066 10 24.5 10.434 24.5 11V20C24.5 22.773 22.273 25 19.5 25H14.219C13.5097 25.0025 12.808 24.8532 12.1612 24.5621C11.5144 24.2709 10.9374 23.8447 10.469 23.312L8.09399 20.594C7.72876 20.1845 7.51922 19.6595 7.50203 19.1111C7.48485 18.5626 7.66112 18.0256 7.99999 17.594L8.49999 16.937V18H10.5V10C10.5 9.434 10.934 9 11.5 9C12.066 9 12.5 9.434 12.5 10V12H14.5V9C14.5 8.434 14.934 8 15.5 8Z" fill="#F8F7FF"/>
</svg>
