<svg width="72" height="72" viewBox="0 0 33 32" fill="none" xmlns="http://www.w3.org/2000/svg">
    <path
        d="M11.906 6.969C11.2497 6.9623 10.5963 7.05709 9.969 7.25H9.938L7.438 8.031C6.00825 8.47205 4.75737 9.35949 3.86873 10.5632C2.98008 11.767 2.5004 13.2238 2.5 14.72V20C2.5 23.855 5.645 27 9.5 27H19.406C20.625 27.027 21.805 26.312 22.281 25.125C22.582 24.371 22.539 23.578 22.25 22.875C22.8855 22.5477 23.3839 22.005 23.656 21.344C23.8041 20.9693 23.875 20.5685 23.8644 20.1657C23.8537 19.7629 23.7617 19.3664 23.594 19H27.5C29.145 19 30.5 17.645 30.5 16C30.5 14.355 29.145 13 27.5 13H25.969L26.375 12.875C27.949 12.398 28.852 10.699 28.375 9.125C27.898 7.551 26.199 6.648 24.625 7.125L16.187 9.719C16.11 9.51372 16.0163 9.31506 15.907 9.125C15.407 8.289 14.395 7.344 12.781 7.062C12.481 7.012 12.184 6.972 11.906 6.969ZM25.625 9C26.015 9.043 26.348 9.313 26.469 9.719C26.633 10.258 26.32 10.805 25.781 10.969L18.938 13.031L19.281 14.156V15H27.5C28.066 15 28.5 15.434 28.5 16C28.5 16.566 28.066 17 27.5 17H20.906L18.281 15.969C17.9144 15.8187 17.5212 15.7443 17.125 15.75L16.594 11.656L25.219 9.031C25.3506 8.99197 25.489 8.9814 25.625 9ZM11.875 9.031C12.066 9.031 12.265 9.031 12.438 9.062C13.512 9.25 13.926 9.719 14.188 10.156C14.449 10.594 14.468 10.906 14.468 10.906V10.969L15.313 17.406C15.3212 17.4379 15.3313 17.4693 15.343 17.5C15.3735 17.6231 15.379 17.7511 15.3592 17.8764C15.3394 18.0016 15.2947 18.1217 15.2278 18.2294C15.1609 18.3372 15.0731 18.4304 14.9696 18.5037C14.866 18.577 14.7489 18.6287 14.625 18.656C14.301 18.734 14.137 18.691 13.969 18.594C13.801 18.496 13.594 18.289 13.438 17.844L12.188 13C12.1493 12.8542 12.0781 12.7191 11.9797 12.6048C11.8814 12.4905 11.7585 12.3998 11.6202 12.3397C11.4818 12.2796 11.3317 12.2516 11.181 12.2577C11.0303 12.2638 10.883 12.3039 10.75 12.375L9.094 13.281C8.97876 13.3444 8.8772 13.4299 8.79516 13.5327C8.71311 13.6354 8.65221 13.7534 8.61596 13.8798C8.57971 14.0062 8.56883 14.1386 8.58394 14.2692C8.59905 14.3998 8.63985 14.5262 8.704 14.641C8.76736 14.756 8.8528 14.8573 8.95542 14.9392C9.05804 15.021 9.17582 15.0818 9.30199 15.1181C9.42817 15.1543 9.56026 15.1653 9.69068 15.1503C9.8211 15.1354 9.94729 15.0948 10.062 15.031L10.562 14.75L11.532 18.438C11.5403 18.4695 11.5503 18.5006 11.562 18.531C11.832 19.305 12.293 19.926 12.938 20.313C13.465 20.629 14.078 20.75 14.688 20.688C14.361 20.993 14.1049 21.3661 13.938 21.781C13.7185 22.3226 13.6637 22.9169 13.7804 23.4895C13.8971 24.062 14.1801 24.5875 14.594 25H9.5C6.727 25 4.5 22.773 4.5 20V14.719C4.5 12.519 5.93 10.586 8.031 9.938L10.531 9.188C10.734 9.125 11.305 9.031 11.875 9.031ZM17.313 17.781C17.387 17.793 17.457 17.781 17.531 17.813L21.25 19.313C21.773 19.523 22.023 20.07 21.813 20.593C21.602 21.117 21.023 21.367 20.5 21.156L16.781 19.688C16.727 19.668 16.703 19.621 16.656 19.594C17.0653 19.0766 17.2958 18.4405 17.313 17.781ZM16.688 21.906C16.82 21.906 16.961 21.918 17.094 21.969L18.437 22.5L19.75 23.031L19.875 23.063C20.398 23.273 20.648 23.852 20.438 24.375C20.3692 24.5533 20.2496 24.7075 20.0941 24.8185C19.9386 24.9296 19.754 24.9927 19.563 25H19.531C19.3928 25.0059 19.2549 24.9845 19.125 24.937L16.344 23.812C16.2202 23.7638 16.1072 23.6913 16.0116 23.599C15.9161 23.5066 15.8399 23.3961 15.7875 23.274C15.7351 23.1519 15.7075 23.0206 15.7064 22.8877C15.7053 22.7548 15.7306 22.623 15.781 22.5C15.8292 22.3803 15.9011 22.2715 15.9923 22.1803C16.0835 22.0891 16.1923 22.0172 16.312 21.969C16.4316 21.9221 16.5597 21.9007 16.688 21.906Z"
        fill="currentColor" />
</svg>